<svg width="133" height="132" viewBox="0 0 133 132" fill="none" xmlns="http://www.w3.org/2000/svg">
<g clip-path="url(#clip0)">
<path d="M68.2223 131.427C67.4883 131.427 66.7543 131.409 66.0015 131.371C57.4944 130.9 49.5707 127.795 44.8278 123.052L7.59983 85.8051C2.89457 81.0999 0.334915 73.4209 0.598409 64.7632C0.861903 56.3691 3.79798 48.5583 8.48442 43.8907L23.5601 28.8151C23.9929 28.3822 24.6893 28.3822 25.1222 28.8151C25.5551 29.248 25.5551 29.9443 25.1222 30.3772L10.0466 45.4529C5.75537 49.7441 3.06396 56.9902 2.81929 64.8197C2.57462 72.7622 4.94606 80.0083 9.16197 84.2242L46.4088 121.471C50.7753 125.837 58.1531 128.717 66.1332 129.15C74.2074 129.583 81.4912 127.381 85.6318 123.24L101.159 107.713C101.592 107.28 102.288 107.28 102.721 107.713C103.154 108.146 103.154 108.842 102.721 109.275L87.1939 124.802C82.9592 129.075 76.1272 131.427 68.2223 131.427ZM116.574 94.5569C116.291 94.5569 116.009 94.444 115.783 94.237C115.35 93.8041 115.35 93.1077 115.783 92.6748L123.33 85.1276C127.509 80.9493 130.087 74.0796 130.2 66.7771C130.332 59.2675 127.941 52.5108 123.669 48.2196L84.6531 9.20356C80.3807 4.93119 73.2664 2.31506 65.625 2.22096C58.0025 2.12685 50.9823 4.51712 46.8417 8.65775L37.0924 18.407C36.6595 18.8399 35.9631 18.8399 35.5302 18.407C35.0973 17.9742 35.0973 17.2778 35.5302 16.8449L45.2795 7.0956C49.8154 2.54092 57.4379 -0.112849 65.6439 7.68674e-05C73.9816 0.113003 81.4723 2.89852 86.2152 7.62259L125.231 46.6386C129.936 51.3438 132.553 58.684 132.421 66.7959C132.289 74.6631 129.466 82.0974 124.892 86.6897L117.345 94.237C117.138 94.444 116.856 94.5569 116.574 94.5569Z" fill="url(#paint0_linear)"/>
<path d="M93.7237 39.2763C86.4519 32.0046 76.7837 28 66.5 28C56.2163 28 46.5481 32.0046 39.2763 39.2763C32.0045 46.548 28 56.2163 28 66.5C28 76.7837 32.0046 86.4519 39.2763 93.7237C46.548 100.996 56.2163 105 66.5 105C76.7837 105 86.4519 100.995 93.7237 93.7237C100.996 86.452 105 76.7837 105 66.5C105 56.2163 100.995 46.5481 93.7237 39.2763ZM92.0222 92.0222C85.205 98.8394 76.1409 102.594 66.5 102.594C56.8591 102.594 47.795 98.8394 40.9778 92.0222C34.1606 85.205 30.4062 76.1409 30.4062 66.5C30.4062 56.8591 34.1606 47.795 40.9778 40.9778C47.795 34.1606 56.8591 30.4062 66.5 30.4062C76.1409 30.4062 85.205 34.1606 92.0222 40.9778C98.8394 47.795 102.594 56.8591 102.594 66.5C102.594 76.1409 98.8394 85.205 92.0222 92.0222Z" fill="url(#paint1_linear)"/>
<path d="M35.2188 66.5C35.2188 49.2515 49.2515 35.2188 66.5 35.2188C72.7214 35.2188 78.7307 37.0401 83.8784 40.486C84.4305 40.8557 85.1778 40.7077 85.5474 40.1555C85.9171 39.6034 85.7691 38.8561 85.2169 38.4864C79.6718 34.7745 73.1996 32.8125 66.5 32.8125C57.5017 32.8125 49.0421 36.3166 42.6793 42.6793C36.3166 49.0421 32.8125 57.5017 32.8125 66.5C32.8125 74.8016 35.8585 82.7771 41.3896 88.9575C41.6272 89.2231 41.9563 89.3583 42.2865 89.3583C42.5721 89.3583 42.8589 89.2573 43.0884 89.0517C43.5835 88.6085 43.6257 87.8479 43.1825 87.3529C38.0471 81.6143 35.2188 74.2086 35.2188 66.5Z" fill="url(#paint2_linear)"/>
<path d="M94.5137 47.7834C94.1441 47.2312 93.3968 47.0832 92.8447 47.4529C92.2926 47.8225 92.1445 48.5698 92.5141 49.1219C95.9599 54.2695 97.7813 60.2788 97.7813 66.5C97.7813 83.7485 83.7485 97.7813 66.5 97.7813C59.344 97.7813 52.3488 95.303 46.8035 90.803C46.2875 90.3843 45.5298 90.4631 45.1111 90.9791C44.6925 91.4951 44.7713 92.2527 45.2872 92.6714C51.26 97.5182 58.7935 100.188 66.5 100.188C75.4983 100.188 83.9579 96.6834 90.3207 90.3207C96.6834 83.958 100.188 75.4983 100.188 66.5C100.188 59.8005 98.2255 53.3283 94.5137 47.7834Z" fill="url(#paint3_linear)"/>
<path d="M87.3529 43.1827C88.1618 43.9065 88.9417 44.6812 89.671 45.4849C89.9085 45.7465 90.2348 45.8795 90.5624 45.8795C90.8507 45.8795 91.1402 45.7763 91.3706 45.5673C91.8625 45.1208 91.8995 44.3598 91.453 43.8677C90.6679 43.0027 89.8283 42.1689 88.9575 41.3896C88.4625 40.9465 87.7018 40.9886 87.2587 41.4837C86.8157 41.9788 86.8576 42.7395 87.3529 43.1827Z" fill="url(#paint4_linear)"/>
<path d="M66.5 43.6406C67.1644 43.6406 67.7031 43.1019 67.7031 42.4375V38.8281C67.7031 38.1637 67.1644 37.625 66.5 37.625C65.8356 37.625 65.2969 38.1637 65.2969 38.8281V42.4375C65.2969 43.1019 65.8356 43.6406 66.5 43.6406Z" fill="url(#paint5_linear)"/>
<path d="M65.2969 90.5625V94.1719C65.2969 94.8363 65.8356 95.375 66.5 95.375C67.1644 95.375 67.7031 94.8363 67.7031 94.1719V90.5625C67.7031 89.8981 67.1644 89.3594 66.5 89.3594C65.8356 89.3594 65.2969 89.8981 65.2969 90.5625Z" fill="url(#paint6_linear)"/>
<path d="M43.6406 66.5C43.6406 65.8356 43.1019 65.2969 42.4375 65.2969H38.8281C38.1637 65.2969 37.625 65.8356 37.625 66.5C37.625 67.1644 38.1637 67.7031 38.8281 67.7031H42.4375C43.1019 67.7031 43.6406 67.1644 43.6406 66.5Z" fill="url(#paint7_linear)"/>
<path d="M89.3594 66.5C89.3594 67.1644 89.8981 67.7031 90.5625 67.7031H94.1719C94.8363 67.7031 95.375 67.1644 95.375 66.5C95.375 65.8356 94.8363 65.2969 94.1719 65.2969H90.5625C89.8981 65.2969 89.3594 65.8356 89.3594 66.5Z" fill="url(#paint8_linear)"/>
<path d="M55.5107 45.0597L53.706 41.9338C53.3738 41.3583 52.6379 41.1614 52.0625 41.4935C51.4871 41.8257 51.2899 42.5616 51.6222 43.137L53.4268 46.2628C53.6497 46.6487 54.0541 46.8646 54.47 46.8646C54.674 46.8646 54.881 46.8125 55.0705 46.7032C55.6457 46.371 55.8429 45.6351 55.5107 45.0597Z" fill="url(#paint9_linear)"/>
<path d="M79.5732 86.7372C79.241 86.1618 78.5049 85.9649 77.9297 86.2968C77.3543 86.629 77.1571 87.3649 77.4893 87.9403L79.294 91.0661C79.5169 91.452 79.9213 91.6679 80.3371 91.6679C80.5412 91.6679 80.7482 91.6158 80.9377 91.5065C81.5131 91.1743 81.7102 90.4384 81.378 89.863L79.5732 86.7372Z" fill="url(#paint10_linear)"/>
<path d="M42.5366 81.5392C42.7407 81.5392 42.9476 81.4872 43.1371 81.3779L46.263 79.5732C46.8384 79.241 47.0355 78.5051 46.7033 77.9297C46.3711 77.3543 45.6351 77.1574 45.0599 77.4894L41.934 79.294C41.3586 79.6263 41.1614 80.3621 41.4937 80.9375C41.7164 81.3234 42.1208 81.5392 42.5366 81.5392Z" fill="url(#paint11_linear)"/>
<path d="M87.3398 55.672C87.5439 55.672 87.7508 55.62 87.9403 55.5107L91.0661 53.706C91.6415 53.3738 91.8387 52.6379 91.5065 52.0625C91.1743 51.4871 90.4384 51.2903 89.863 51.6222L86.7372 53.4269C86.1618 53.7591 85.9646 54.4949 86.2968 55.0703C86.5197 55.4562 86.9241 55.672 87.3398 55.672Z" fill="url(#paint12_linear)"/>
<path d="M80.9375 41.4935C80.3621 41.1611 79.6262 41.3583 79.294 41.9338L77.4893 45.0597C77.1571 45.6351 77.3543 46.371 77.9297 46.7032C78.1192 46.8127 78.326 46.8645 78.5302 46.8645C78.946 46.8645 79.3504 46.6487 79.5733 46.2628L81.378 43.137C81.7101 42.5616 81.5129 41.8257 80.9375 41.4935Z" fill="url(#paint13_linear)"/>
<path d="M55.0703 86.2968C54.4949 85.9646 53.7591 86.1618 53.4269 86.7371L51.6222 89.863C51.2899 90.4384 51.4871 91.1743 52.0625 91.5065C52.252 91.616 52.4588 91.6679 52.663 91.6679C53.0788 91.6679 53.4832 91.452 53.7061 91.0661L55.5108 87.9403C55.8429 87.3649 55.6457 86.629 55.0703 86.2968Z" fill="url(#paint14_linear)"/>
<path d="M86.7371 79.5731L89.863 81.3778C90.0525 81.4873 90.2593 81.5392 90.4635 81.5392C90.8794 81.5392 91.2838 81.3234 91.5066 80.9375C91.8389 80.3621 91.6417 79.6262 91.0663 79.294L87.9404 77.4893C87.365 77.157 86.6292 77.3543 86.2969 77.9297C85.9646 78.5051 86.1617 79.2409 86.7371 79.5731Z" fill="url(#paint15_linear)"/>
<path d="M46.2628 53.4268L43.137 51.6221C42.5616 51.2898 41.8257 51.4871 41.4935 52.0625C41.1613 52.6379 41.3584 53.3737 41.9338 53.706L45.0597 55.5106C45.2492 55.6201 45.456 55.672 45.6602 55.672C46.0761 55.672 46.4805 55.4562 46.7033 55.0703C47.0354 54.4949 46.8382 53.759 46.2628 53.4268Z" fill="url(#paint16_linear)"/>
<path d="M74.8756 82.2084C75.0796 82.2084 75.2866 82.1564 75.4761 82.0471C76.0515 81.7149 76.2486 80.979 75.9164 80.4036L69.2421 68.8432C69.7821 68.212 70.1094 67.3938 70.1094 66.5C70.1094 64.9316 69.1034 63.5942 67.7031 63.0976V47.25C67.7031 46.5856 67.1644 46.0469 66.5 46.0469C65.8356 46.0469 65.2969 46.5856 65.2969 47.25V63.0976C63.8966 63.5942 62.8906 64.9316 62.8906 66.5C62.8906 68.4903 64.5097 70.1094 66.5 70.1094C66.7251 70.1094 66.9453 70.0876 67.1592 70.048L73.8326 81.6067C74.0555 81.9926 74.4599 82.2084 74.8756 82.2084ZM65.2969 66.5C65.2969 65.8366 65.8366 65.2969 66.5 65.2969C67.1634 65.2969 67.7031 65.8366 67.7031 66.5C67.7031 67.1634 67.1634 67.7031 66.5 67.7031C65.8366 67.7031 65.2969 67.1634 65.2969 66.5Z" fill="url(#paint17_linear)"/>
</g>
<defs>
<linearGradient id="paint0_linear" x1="0.579588" y1="65.7178" x2="132.42" y2="65.7178" gradientUnits="userSpaceOnUse">
<stop stop-color="#8FFF70"/>
<stop offset="1" stop-color="#8FFFFF"/>
</linearGradient>
<linearGradient id="paint1_linear" x1="28" y1="67.1754" x2="105" y2="67.1754" gradientUnits="userSpaceOnUse">
<stop stop-color="#8FFF73"/>
<stop offset="1" stop-color="#8FFFF9"/>
</linearGradient>
<linearGradient id="paint2_linear" x1="32.8125" y1="61.5814" x2="85.7509" y2="61.5814" gradientUnits="userSpaceOnUse">
<stop stop-color="#8FFF73"/>
<stop offset="1" stop-color="#8FFFF9"/>
</linearGradient>
<linearGradient id="paint3_linear" x1="44.8422" y1="74.1828" x2="100.188" y2="74.1828" gradientUnits="userSpaceOnUse">
<stop stop-color="#8FFF73"/>
<stop offset="1" stop-color="#8FFFF9"/>
</linearGradient>
<linearGradient id="paint4_linear" x1="86.9521" y1="43.5233" x2="91.7651" y2="43.5233" gradientUnits="userSpaceOnUse">
<stop stop-color="#8FFF73"/>
<stop offset="1" stop-color="#8FFFF9"/>
</linearGradient>
<linearGradient id="paint5_linear" x1="65.2969" y1="40.6856" x2="67.7031" y2="40.6856" gradientUnits="userSpaceOnUse">
<stop stop-color="#8FFF73"/>
<stop offset="1" stop-color="#8FFFF9"/>
</linearGradient>
<linearGradient id="paint6_linear" x1="65.2969" y1="92.42" x2="67.7031" y2="92.42" gradientUnits="userSpaceOnUse">
<stop stop-color="#8FFF73"/>
<stop offset="1" stop-color="#8FFFF9"/>
</linearGradient>
<linearGradient id="paint7_linear" x1="37.625" y1="66.5211" x2="43.6406" y2="66.5211" gradientUnits="userSpaceOnUse">
<stop stop-color="#8FFF73"/>
<stop offset="1" stop-color="#8FFFF9"/>
</linearGradient>
<linearGradient id="paint8_linear" x1="89.3594" y1="66.5211" x2="95.375" y2="66.5211" gradientUnits="userSpaceOnUse">
<stop stop-color="#8FFF73"/>
<stop offset="1" stop-color="#8FFFF9"/>
</linearGradient>
<linearGradient id="paint9_linear" x1="51.4608" y1="44.1469" x2="55.672" y2="44.1469" gradientUnits="userSpaceOnUse">
<stop stop-color="#8FFF73"/>
<stop offset="1" stop-color="#8FFFF9"/>
</linearGradient>
<linearGradient id="paint10_linear" x1="77.328" y1="88.9502" x2="81.5394" y2="88.9502" gradientUnits="userSpaceOnUse">
<stop stop-color="#8FFF73"/>
<stop offset="1" stop-color="#8FFFF9"/>
</linearGradient>
<linearGradient id="paint11_linear" x1="41.3323" y1="79.4706" x2="46.8647" y2="79.4706" gradientUnits="userSpaceOnUse">
<stop stop-color="#8FFF73"/>
<stop offset="1" stop-color="#8FFFF9"/>
</linearGradient>
<linearGradient id="paint12_linear" x1="86.1354" y1="53.6034" x2="91.6679" y2="53.6034" gradientUnits="userSpaceOnUse">
<stop stop-color="#8FFF73"/>
<stop offset="1" stop-color="#8FFFF9"/>
</linearGradient>
<linearGradient id="paint13_linear" x1="77.328" y1="44.1468" x2="81.5393" y2="44.1468" gradientUnits="userSpaceOnUse">
<stop stop-color="#8FFF73"/>
<stop offset="1" stop-color="#8FFFF9"/>
</linearGradient>
<linearGradient id="paint14_linear" x1="51.4608" y1="88.9502" x2="55.6721" y2="88.9502" gradientUnits="userSpaceOnUse">
<stop stop-color="#8FFF73"/>
<stop offset="1" stop-color="#8FFFF9"/>
</linearGradient>
<linearGradient id="paint15_linear" x1="86.1355" y1="79.4705" x2="91.668" y2="79.4705" gradientUnits="userSpaceOnUse">
<stop stop-color="#8FFF73"/>
<stop offset="1" stop-color="#8FFFF9"/>
</linearGradient>
<linearGradient id="paint16_linear" x1="41.3321" y1="53.6033" x2="46.8646" y2="53.6033" gradientUnits="userSpaceOnUse">
<stop stop-color="#8FFF73"/>
<stop offset="1" stop-color="#8FFFF9"/>
</linearGradient>
<linearGradient id="paint17_linear" x1="62.8906" y1="64.4449" x2="76.0778" y2="64.4449" gradientUnits="userSpaceOnUse">
<stop stop-color="#8FFF73"/>
<stop offset="1" stop-color="#8FFFF9"/>
</linearGradient>
<clipPath id="clip0">
<rect width="131.841" height="131.427" fill="white" transform="translate(0.579346)"/>
</clipPath>
</defs>
</svg>
