<svg width="132" height="132" viewBox="0 0 132 132" fill="none" xmlns="http://www.w3.org/2000/svg">
<g clip-path="url(#clip0)">
<path d="M67.643 131.427C66.909 131.427 66.175 131.409 65.4221 131.371C56.915 130.9 48.9914 127.795 44.2485 123.052L7.02048 85.8051C2.31523 81.0999 -0.244431 73.4209 0.0190634 64.7632C0.282558 56.3691 3.21864 48.5583 7.90507 43.8907L22.9807 28.8151C23.4136 28.3822 24.11 28.3822 24.5429 28.8151C24.9757 29.248 24.9757 29.9443 24.5429 30.3772L9.46722 45.4529C5.17602 49.7441 2.48462 56.9902 2.23994 64.8197C1.99527 72.7622 4.36672 80.0083 8.58263 84.2242L45.8294 121.471C50.1959 125.837 57.5738 128.717 65.5539 129.15C73.6281 129.583 80.9118 127.381 85.0524 123.24L100.58 107.713C101.013 107.28 101.709 107.28 102.142 107.713C102.575 108.146 102.575 108.842 102.142 109.275L86.6146 124.802C82.3799 129.075 75.5478 131.427 67.643 131.427ZM115.994 94.5569C115.712 94.5569 115.43 94.444 115.204 94.237C114.771 93.8041 114.771 93.1077 115.204 92.6748L122.751 85.1276C126.929 80.9493 129.508 74.0796 129.621 66.7771C129.752 59.2675 127.362 52.5108 123.09 48.2196L84.0738 9.20356C79.8014 4.93119 72.687 2.31506 65.0457 2.22096C57.4232 2.12685 50.4029 4.51712 46.2623 8.65775L36.513 18.407C36.0801 18.8399 35.3838 18.8399 34.9509 18.407C34.518 17.9742 34.518 17.2778 34.9509 16.8449L44.7002 7.0956C49.236 2.54092 56.8586 -0.112849 65.0645 7.68674e-05C73.4022 0.113003 80.893 2.89852 85.6359 7.62259L124.652 46.6386C129.357 51.3438 131.973 58.684 131.842 66.7959C131.71 74.6631 128.887 82.0974 124.313 86.6897L116.766 94.237C116.559 94.444 116.277 94.5569 115.994 94.5569Z" fill="url(#paint0_linear)"/>
</g>
<path d="M97.71 58.986H93.8363V57.6966C93.8363 56.434 92.8089 55.4066 91.5462 55.4066H88.6854C87.4227 55.4066 86.3953 56.434 86.3953 57.6966V58.986H83.4066L81.1945 56.6262C80.6633 56.0596 80.3708 55.32 80.3708 54.5433V52.9203H88.8072C90.0699 52.9203 91.0972 51.8929 91.0972 50.6302V41.3798C91.0972 40.8377 90.6578 40.3983 90.1158 40.3983C89.5738 40.3983 89.1344 40.8377 89.1344 41.3798V46.7177H75.7214V45.7244C75.7214 42.2971 72.9329 39.5086 69.5056 39.5086H64.704V33.29C64.704 33.1097 64.8508 32.9629 65.0311 32.9629H88.8072C88.9875 32.9629 89.1344 33.1097 89.1344 33.29V36.8573C89.1344 37.3993 89.5738 37.8387 90.1158 37.8387C90.6578 37.8387 91.0972 37.3993 91.0972 36.8573V33.29C91.0972 32.0274 90.0699 31 88.8072 31H65.0311C63.7684 31 62.7411 32.0274 62.7411 33.29V39.5085H53.9001C50.4727 39.5085 47.6843 42.297 47.6843 45.7243V48.7707C47.6843 49.3127 48.1237 49.7521 48.6657 49.7521C49.2077 49.7521 49.6471 49.3127 49.6471 48.7707V45.7243C49.6471 43.3793 51.5551 41.4714 53.9001 41.4714H69.5054C71.8504 41.4714 73.7584 43.3793 73.7584 45.7243V68.1936C73.7584 69.0957 73.0246 69.8294 72.1226 69.8294H65.0789V65.3357C65.0789 64.073 64.0515 63.0456 62.7888 63.0456H60.6168C59.3542 63.0456 58.3268 64.073 58.3268 65.3357V69.8294H51.2829C50.3809 69.8294 49.6471 69.0957 49.6471 68.1936V53.4816C49.6471 52.9396 49.2077 52.5002 48.6657 52.5002C48.1237 52.5002 47.6843 52.9396 47.6843 53.4816V58.986H45.4709V52.1352C45.4709 51.4498 44.9132 50.8921 44.2277 50.8921H44.0092V47.699C44.0092 45.9889 42.6179 44.5976 40.9078 44.5976C39.1978 44.5976 37.8065 45.9889 37.8065 47.699V50.8921H37.5879C36.9025 50.8921 36.3448 51.4498 36.3448 52.1352V58.986H35.29C34.0274 58.986 33 60.0134 33 61.276V64.2054C33 65.4681 34.0274 66.4955 35.29 66.4955H36.3448V96.3643C36.3448 97.2663 37.0785 98 37.9805 98H41.7571C42.6591 98 43.3929 97.2663 43.3929 96.3643V82.4146H47.6843V83.5618C47.6843 84.4638 48.418 85.1975 49.32 85.1975H58.3268V85.8935L50.012 95.2797C49.5795 95.7679 49.4772 96.4409 49.7448 97.0357C50.0124 97.6305 50.5842 98 51.2364 98H54.4739C54.9466 98 55.3959 97.7956 55.7066 97.4394L58.3268 94.4353V95.7098C58.3268 96.9725 59.3542 97.9999 60.6168 97.9999H62.7888C64.0515 97.9999 65.0789 96.9725 65.0789 95.7098V94.4353L67.6992 97.4395C68.01 97.7956 68.4592 97.9999 68.9318 97.9999H72.1692C72.8216 97.9999 73.3931 97.6303 73.6608 97.0356C73.9284 96.4408 73.8262 95.7678 73.3935 95.2796L65.0787 85.8934V85.1975H74.0855C74.9875 85.1975 75.7213 84.4638 75.7213 83.5618V82.4146H89.6071V96.3643C89.6071 97.2663 90.3409 98 91.2429 98H95.0195C95.9215 98 96.6552 97.2663 96.6552 96.3643V76.7979C96.6552 76.2559 96.2158 75.8165 95.6738 75.8165C95.1318 75.8165 94.6923 76.2559 94.6923 76.7979V96.0371H91.57V66.4955H94.6923V72.087C94.6923 72.629 95.1318 73.0684 95.6738 73.0684C96.2158 73.0684 96.6552 72.629 96.6552 72.087V66.4955H97.71C98.9726 66.4955 100 65.4681 100 64.2054V61.276C100 60.0134 98.9726 58.986 97.71 58.986V58.986ZM88.3582 57.6966C88.3582 57.5163 88.5051 57.3695 88.6854 57.3695H91.5462C91.7265 57.3695 91.8734 57.5163 91.8734 57.6966V58.986H88.3582V57.6966ZM79.7623 57.9687L80.716 58.986H75.7214V52.9203H78.4079V54.5434C78.4079 55.8206 78.8888 57.0371 79.7623 57.9687V57.9687ZM89.1344 48.6804V50.6302C89.1344 50.8105 88.9875 50.9574 88.8072 50.9574H75.7214V48.6804H89.1344ZM60.2897 65.3357C60.2897 65.1553 60.4365 65.0085 60.6168 65.0085H62.7888C62.9692 65.0085 63.116 65.1553 63.116 65.3357V75.5547H60.2897V65.3357ZM38.3077 52.8551H43.508V54.6689H38.3077V52.8551ZM39.7694 47.699C39.7694 47.0712 40.2801 46.5605 40.9078 46.5605C41.5356 46.5605 42.0463 47.0712 42.0463 47.699V50.8921H39.7694V47.699ZM38.3077 56.6318H43.508V58.986H38.3077V56.6318ZM34.9629 64.2054V61.276C34.9629 61.0957 35.1097 60.9489 35.29 60.9489H47.6843V64.5326H35.29C35.1097 64.5326 34.9629 64.3858 34.9629 64.2054V64.2054ZM41.43 96.0371H38.3077V66.4955H41.43V96.0371ZM43.3929 80.4518V66.4955H47.6843V68.1936C47.6843 70.178 49.2985 71.7923 51.2829 71.7923H58.3268V75.5546H52.2075C51.3327 75.5546 50.4891 75.8727 49.8319 76.4502L48.2403 77.849C47.887 78.1595 47.6844 78.6073 47.6844 79.0776V80.4516H43.3929V80.4518ZM54.3251 96.0371H51.9634L58.3268 88.8537V91.449L54.3251 96.0371ZM71.4423 96.0371H69.0805L65.0789 91.449V88.8537L71.4423 96.0371ZM63.116 95.71C63.116 95.8903 62.9692 96.0371 62.7888 96.0371H60.6168C60.4365 96.0371 60.2897 95.8903 60.2897 95.71V85.1975H63.116V95.71ZM73.7585 83.2346H64.0987C64.0983 83.2346 64.0979 83.2346 64.0974 83.2346C64.0969 83.2346 64.0966 83.2346 64.0961 83.2346H59.3095C59.3091 83.2346 59.3088 83.2346 59.3082 83.2346C59.3077 83.2346 59.3074 83.2346 59.3069 83.2346H49.6471V79.2257L51.1276 77.9247C51.4263 77.6622 51.8097 77.5176 52.2074 77.5176H71.1981C71.5958 77.5176 71.9792 77.6622 72.2778 77.9247L73.7582 79.2257V83.2346H73.7585ZM89.6071 80.4518H75.7214V79.0777C75.7214 78.6074 75.5188 78.1596 75.1655 77.8491L73.5739 76.4503C72.9168 75.8727 72.073 75.5547 71.1982 75.5547H65.0789V71.7924H72.1228C74.1071 71.7924 75.7214 70.1781 75.7214 68.1938V66.4956H89.6071V80.4518ZM97.71 60.9489C97.8903 60.9489 98.0371 61.0957 98.0371 61.276V64.2054C98.0371 64.3858 97.8903 64.5326 97.71 64.5326H75.7214V60.9489H97.71Z" fill="url(#paint1_linear)"/>
<defs>
<linearGradient id="paint0_linear" x1="0.000242341" y1="65.7178" x2="131.841" y2="65.7178" gradientUnits="userSpaceOnUse">
<stop stop-color="#8FFF70"/>
<stop offset="1" stop-color="#8FFFFF"/>
</linearGradient>
<linearGradient id="paint1_linear" x1="33" y1="65.0877" x2="100" y2="65.0877" gradientUnits="userSpaceOnUse">
<stop stop-color="#8FFF73"/>
<stop offset="1" stop-color="#8FFFF9"/>
</linearGradient>
<clipPath id="clip0">
<rect width="131.841" height="131.427" fill="white"/>
</clipPath>
</defs>
</svg>
