<svg width="133" height="132" viewBox="0 0 133 132" fill="none" xmlns="http://www.w3.org/2000/svg">
<g clip-path="url(#clip0)">
<path d="M68.0081 131.427C67.2741 131.427 66.5401 131.409 65.7872 131.371C57.2801 130.9 49.3565 127.795 44.6136 123.052L7.3856 85.8051C2.68034 81.0999 0.120681 73.4209 0.384176 64.7632C0.64767 56.3691 3.58375 48.5583 8.27018 43.8907L23.3458 28.8151C23.7787 28.3822 24.4751 28.3822 24.908 28.8151C25.3409 29.248 25.3409 29.9443 24.908 30.3772L9.83233 45.4529C5.54114 49.7441 2.84973 56.9902 2.60506 64.8197C2.36038 72.7622 4.73183 80.0083 8.94774 84.2242L46.1945 121.471C50.561 125.837 57.9389 128.717 65.919 129.15C73.9932 129.583 81.2769 127.381 85.4176 123.24L100.945 107.713C101.378 107.28 102.074 107.28 102.507 107.713C102.94 108.146 102.94 108.842 102.507 109.275L86.9797 124.802C82.745 129.075 75.9129 131.427 68.0081 131.427ZM116.359 94.5569C116.077 94.5569 115.795 94.444 115.569 94.237C115.136 93.8041 115.136 93.1077 115.569 92.6748L123.116 85.1276C127.294 80.9493 129.873 74.0796 129.986 66.7771C130.117 59.2675 127.727 52.5108 123.455 48.2196L84.4389 9.20356C80.1665 4.93119 73.0522 2.31506 65.4108 2.22096C57.7883 2.12685 50.7681 4.51712 46.6274 8.65775L36.8781 18.407C36.4453 18.8399 35.7489 18.8399 35.316 18.407C34.8831 17.9742 34.8831 17.2778 35.316 16.8449L45.0653 7.0956C49.6012 2.54092 57.2237 -0.112849 65.4296 7.68674e-05C73.7674 0.113003 81.2581 2.89852 86.001 7.62259L125.017 46.6386C129.722 51.3438 132.338 58.684 132.207 66.7959C132.075 74.6631 129.252 82.0974 124.678 86.6897L117.131 94.237C116.924 94.444 116.642 94.5569 116.359 94.5569Z" fill="url(#paint0_linear)"/>
<g clip-path="url(#clip1)">
<path d="M99.5238 67.4013C99.5238 63.5185 97.4882 59.9342 94.2372 57.9217C94.9551 56.4257 95.33 54.7856 95.33 53.1087C95.33 48.2839 89.3725 44.3742 85.4716 42.332C85.0551 36.5648 80.2319 32 74.3629 32C71.0436 32 68.0071 33.3407 65.9312 35.6562C63.8369 33.3409 60.8651 32 57.6847 32C53.8237 32 50.1703 34.0711 48.1657 37.3676C47.2402 38.8895 46.6879 40.6294 46.5716 42.4069C46.5709 42.4172 46.5695 42.4274 46.5688 42.4377C46.3337 42.5575 46.0485 42.7074 45.7003 42.8955C44.8247 43.3681 43.5023 44.1334 42.1747 45.0947C38.5537 47.7165 36.7176 50.4127 36.7176 53.1087C36.7176 54.7856 37.0924 56.4257 37.8103 57.9217C34.5595 59.9342 32.5238 63.5185 32.5238 67.4013C32.5238 71.1535 34.3863 74.5975 37.4571 76.6546C36.9712 77.9239 36.7176 79.2829 36.7176 80.645C36.7176 84.6708 38.844 88.3186 42.3072 90.3065C43.7628 95.3795 49.5566 99 56.3741 99C59.9014 99 63.3544 97.9648 66.0165 96.1393C68.6621 97.9885 72.0482 99 75.6735 99C82.491 99 88.2849 95.3795 89.7404 90.3065C93.2037 88.3187 95.33 84.6708 95.33 80.645C95.33 79.283 95.0764 77.9241 94.5905 76.6546C97.6613 74.5975 99.5238 71.1536 99.5238 67.4013ZM56.3741 96.3828C50.6096 96.3828 45.5974 93.2754 44.7154 89.1547C44.6326 88.7676 44.3789 88.4387 44.0256 88.2604C41.911 87.1931 40.383 85.3467 39.713 83.1668C40.8067 83.7118 41.9849 83.9891 43.2138 83.9891H43.2178C44.9982 83.9891 46.8257 83.3367 48.1992 82.2071C48.7399 81.7624 48.8201 80.9004 48.3804 80.3646C47.9386 79.8262 47.075 79.744 46.5388 80.1836C45.5901 80.9609 44.4412 81.3718 43.215 81.3718C41.7477 81.3718 40.3775 80.7695 39.3862 79.7071C39.4991 78.6675 39.8006 77.6686 40.2883 76.7276C40.6203 76.087 40.3712 75.2987 39.7315 74.9652C36.8999 73.4888 35.141 70.5904 35.141 67.4013C35.141 64.0659 37.1044 61.0182 40.143 59.637C40.4895 59.4794 40.7504 59.1788 40.8573 58.8135C40.9642 58.4481 40.9068 58.0542 40.7 57.7347C39.8069 56.3549 39.3348 54.7551 39.3348 53.1087C39.3348 50.0062 43.7865 46.9096 46.7583 45.2879C47.2961 48.0089 48.8401 50.4768 51.1138 52.1412C51.6666 52.5458 52.5287 52.4239 52.9428 51.8583C53.3697 51.2751 53.243 50.4563 52.6598 50.0294C49.3591 47.6132 48.2315 42.9847 50.0655 39.33C51.498 36.4747 54.4883 34.6172 57.6847 34.6172C60.4619 34.6172 63.0322 35.9544 64.6333 38.2128L64.6334 38.3448C64.6282 39.2076 64.6258 41.1219 64.6287 45.4484H57.349C56.8198 45.4484 56.3427 45.7672 56.1401 46.2561C55.9376 46.745 56.0494 47.3078 56.4234 47.6821C58.4686 49.7283 58.4686 53.0576 56.4236 55.1039C54.4396 57.089 50.9856 57.083 49.0075 55.1039C48.4966 54.5927 47.6682 54.5925 47.1569 55.1035C46.6458 55.6144 46.6455 56.443 47.1565 56.9541C47.3585 57.1563 47.5705 57.345 47.7897 57.522L44.4765 60.9246C42.6955 62.7133 42.6976 65.6182 44.4828 67.4043C46.2332 69.1557 49.2251 69.1478 50.9676 67.4044C51.4785 66.8931 51.4783 66.0647 50.9671 65.5538C50.4557 65.0429 49.6275 65.043 49.1166 65.554C48.396 66.2749 47.0788 66.2994 46.334 65.5543C45.5664 64.7863 45.5664 63.5366 46.334 62.7684C46.338 62.7644 46.342 62.7603 46.346 62.7563C46.346 62.7563 50.1642 58.8351 50.1646 58.8345C50.2091 58.7889 51.5335 59.1711 51.6999 59.1927C54.1071 59.5042 56.5603 58.6693 58.2746 56.9541C60.6728 54.5545 61.1943 50.9774 59.8391 48.0656H64.6309C64.6339 51.4125 64.6393 55.8401 64.6476 61.7002H61.4437V61.3696C61.4437 60.6468 60.8579 60.061 60.1351 60.061C59.4124 60.061 58.8265 60.6468 58.8265 61.3696V64.6477C58.8265 65.3704 59.4124 65.9563 60.1351 65.9563C60.8579 65.9563 61.4437 65.3704 61.4437 64.6477V64.3176H64.6512C64.6521 64.9364 64.6608 70.7632 64.6643 72.9772H61.0016C60.7801 72.3666 60.4262 71.7938 59.9375 71.3049C59.0715 70.4384 57.9201 69.9613 56.6952 69.9613C55.4704 69.9613 54.3188 70.4384 53.4528 71.3049C52.9419 71.8162 52.9422 72.6447 53.4533 73.1557C53.9646 73.6664 54.7929 73.6663 55.3039 73.1553C57.0416 71.4175 59.8898 74.1368 58.0864 75.941C57.5755 76.4521 57.5757 77.2807 58.0868 77.7916C58.5797 78.2843 59.4316 78.2973 59.9374 77.7912C60.5637 77.1645 60.9698 76.4001 61.157 75.5945H64.6685C64.6736 78.6086 64.6787 81.4618 64.6838 83.9954H54.4171C54.0699 83.9954 53.737 84.1333 53.4915 84.379C51.7043 86.1671 51.7043 89.0767 53.4914 90.865C55.2282 92.6029 58.2491 92.5933 59.9761 90.8651C60.487 90.3539 60.4869 89.5254 59.9757 89.0145C59.4645 88.5036 58.6363 88.5038 58.1254 89.0146C57.3896 89.7506 56.0739 89.7465 55.3427 89.0149C54.6927 88.3645 54.593 87.3688 55.0439 86.6126H64.6893C64.6941 88.8474 64.7075 93.4499 64.7096 93.8649C62.4598 95.4709 59.4602 96.3828 56.3741 96.3828ZM92.3162 74.9653C91.6766 75.2989 91.4274 76.0872 91.7594 76.7277C92.392 77.9485 92.7128 79.2665 92.7128 80.6451C92.7128 83.8821 90.9155 86.8001 88.0222 88.2605C87.6687 88.4389 87.4151 88.7677 87.3323 89.1548C86.4502 93.2754 81.438 96.3828 75.6735 96.3828C72.5464 96.3828 69.5441 95.4712 67.3315 93.8664L67.3209 86.6125H72.0508C72.5269 88.637 74.3462 90.1491 76.5131 90.1491C79.0413 90.1491 81.0982 88.0914 81.0982 85.5623C81.0982 83.0332 79.0413 80.9756 76.5131 80.9756C74.5349 80.9756 72.8454 82.2355 72.2039 83.9953H67.3171L67.3049 75.5944H79.4585C80.023 77.4878 81.7786 78.8725 83.8523 78.8725C86.3806 78.8725 88.4374 76.8149 88.4374 74.2858C88.4374 71.7566 86.3806 69.699 83.8523 69.699C81.7786 69.699 80.023 71.0838 79.4585 72.9772H67.301L67.2884 64.3176H70.1533C70.7179 66.211 72.4735 67.5957 74.5472 67.5957C77.0754 67.5957 79.1322 65.5381 79.1322 63.009C79.1322 60.4798 77.0754 58.4222 74.5472 58.4222C72.4735 58.4222 70.7179 59.807 70.1533 61.7004H67.2846L67.2647 48.0657H71.087C71.6692 49.9302 73.4115 51.2874 75.4647 51.2874C77.9929 51.2874 80.0497 49.2297 80.0497 46.7006C80.0497 44.1715 77.9929 42.1139 75.4647 42.1139C73.3704 42.1139 71.6009 43.5262 71.0547 45.4485H67.2609L67.2503 38.2013C68.8035 35.95 71.4343 34.6172 74.3629 34.6172C79.0612 34.6172 82.8836 38.4419 82.8836 43.1431C82.8836 43.9507 83.5193 44.2728 83.7907 44.4103C89.3774 47.2401 92.7127 50.4919 92.7128 53.1087C92.713 56.3673 90.5781 60.2028 87.0058 60.3181C86.6564 60.3286 86.3319 60.4751 86.0924 60.7303C85.8529 60.9842 85.7273 61.3179 85.7391 61.6673C85.7495 62.0088 85.8909 62.3281 86.1369 62.5663C86.3816 62.8044 86.7048 62.9353 87.0464 62.9353H87.0503C87.0621 62.9353 87.075 62.9353 87.0868 62.934C89.2744 62.6874 91.4001 61.8617 92.8495 60.1424C95.3435 61.681 96.9066 64.4262 96.9066 67.4013C96.9066 70.5904 95.1477 73.4888 92.3162 74.9653ZM74.5452 85.5623C74.5452 84.4763 75.428 83.5927 76.5131 83.5927C77.5982 83.5927 78.481 84.4763 78.481 85.5623C78.481 86.6483 77.5982 87.5319 76.5131 87.5319C75.428 87.5319 74.5452 86.6483 74.5452 85.5623ZM81.8845 74.2856C81.8845 73.1996 82.7673 72.3161 83.8523 72.3161C84.9374 72.3161 85.8202 73.1996 85.8202 74.2856C85.8202 75.3716 84.9374 76.2552 83.8523 76.2552C82.7673 76.2552 81.8845 75.3718 81.8845 74.2856ZM72.5795 63.0088C72.5795 61.9228 73.4622 61.0393 74.5473 61.0393C75.6324 61.0393 76.5152 61.9228 76.5152 63.0088C76.5152 64.0948 75.6324 64.9784 74.5473 64.9784C73.4622 64.9784 72.5795 64.0948 72.5795 63.0088ZM73.4968 46.7005C73.4968 45.6145 74.3796 44.7309 75.4647 44.7309C76.5497 44.7309 77.4325 45.6145 77.4325 46.7005C77.4325 47.7865 76.5497 48.67 75.4647 48.67C74.3796 48.67 73.4968 47.7865 73.4968 46.7005Z" fill="url(#paint1_linear)"/>
<path d="M49.8548 75.3838C49.491 75.3524 49.1298 75.4754 48.8603 75.7214C48.6169 75.9439 48.4677 76.2475 48.4402 76.5759C48.4101 76.9253 48.5174 77.2642 48.7438 77.5312C48.9689 77.7981 49.2843 77.9617 49.6323 77.9918C49.6703 77.9944 49.7069 77.9957 49.7449 77.9957C50.072 77.9957 50.3848 77.874 50.6269 77.6529C50.8703 77.4304 51.0195 77.1268 51.0482 76.7984C51.0482 76.7971 51.0482 76.7971 51.0469 76.7971C51.1071 76.0786 50.5732 75.444 49.8548 75.3838Z" fill="url(#paint2_linear)"/>
<path d="M83.203 58.851C83.203 58.851 83.203 58.851 83.2017 58.8497C82.957 58.6129 82.6338 58.4833 82.2936 58.4833C81.935 58.4833 81.6 58.6246 81.3514 58.8824C81.1093 59.1337 80.9784 59.4648 80.985 59.8142C80.9902 60.1636 81.1315 60.4894 81.3828 60.7315C81.3828 60.7315 81.3828 60.7328 81.3841 60.7328C81.6288 60.9697 81.952 61.1005 82.2923 61.1005C82.6508 61.1005 82.9858 60.9579 83.2344 60.7001C83.7343 60.1819 83.7212 59.3535 83.203 58.851Z" fill="url(#paint3_linear)"/>
</g>
</g>
<defs>
<linearGradient id="paint0_linear" x1="0.365355" y1="65.7178" x2="132.206" y2="65.7178" gradientUnits="userSpaceOnUse">
<stop stop-color="#8FFF70"/>
<stop offset="1" stop-color="#8FFFFF"/>
</linearGradient>
<linearGradient id="paint1_linear" x1="32.5238" y1="66.0877" x2="99.5238" y2="66.0877" gradientUnits="userSpaceOnUse">
<stop stop-color="#8FFF73"/>
<stop offset="1" stop-color="#8FFFF9"/>
</linearGradient>
<linearGradient id="paint2_linear" x1="48.4352" y1="76.7103" x2="51.0516" y2="76.7103" gradientUnits="userSpaceOnUse">
<stop stop-color="#8FFF73"/>
<stop offset="1" stop-color="#8FFFF9"/>
</linearGradient>
<linearGradient id="paint3_linear" x1="80.9847" y1="59.8149" x2="83.6007" y2="59.8149" gradientUnits="userSpaceOnUse">
<stop stop-color="#8FFF73"/>
<stop offset="1" stop-color="#8FFFF9"/>
</linearGradient>
<clipPath id="clip0">
<rect width="131.841" height="131.427" fill="white" transform="translate(0.365112)"/>
</clipPath>
<clipPath id="clip1">
<rect width="67" height="67" fill="white" transform="translate(32.5238 32)"/>
</clipPath>
</defs>
</svg>
