<svg width="969" height="957" viewBox="0 0 969 957" fill="none" xmlns="http://www.w3.org/2000/svg">
<path d="M142.76 761.309C143.595 759.086 145.432 757.18 147.602 755.909C149.772 754.48 152.444 753.844 155.115 753.844C158.955 753.685 162.628 755.115 165.132 757.815C167.469 760.197 168.805 763.215 168.805 766.392C168.805 768.139 168.304 769.886 167.469 771.474C166.635 773.062 165.967 774.651 165.466 776.239C164.464 779.257 162.628 784.022 159.957 790.533C157.285 797.045 153.779 805.781 149.606 816.74C145.432 827.699 140.089 841.358 133.578 857.718L153.779 910.131L213.215 761.309C214.049 759.086 215.886 757.18 218.056 755.909C220.227 754.48 222.898 753.844 225.569 753.844C229.242 753.685 232.915 755.115 235.419 757.815C237.757 760.197 239.092 763.215 239.259 766.392C239.259 768.139 238.758 769.886 237.924 771.474C237.59 772.109 236.588 774.968 234.585 780.051C232.581 785.133 229.075 794.345 223.9 807.528C218.724 820.711 211.879 838.341 202.864 860.894C193.848 883.448 182.328 912.037 168.304 946.502C167.303 949.361 165.633 951.902 163.296 953.967C160.624 956.032 157.285 957.144 153.779 956.985C150.106 957.144 146.6 955.873 143.929 953.332C141.759 951.426 140.089 949.044 138.921 946.502C135.081 936.655 131.575 927.284 128.403 918.231C125.23 909.178 122.058 900.76 119.22 892.977C116.048 900.76 112.709 909.178 109.37 918.231C105.864 927.284 102.024 936.814 98.0171 946.502C97.0154 949.361 95.3458 951.902 93.0085 953.967C90.3372 956.032 86.9982 957.144 83.4922 956.985C79.8192 957.144 76.3132 955.873 73.6419 953.332C71.4715 951.426 69.802 949.044 68.6333 946.502C56.2788 914.419 45.9277 887.26 37.4132 865.024C28.8986 842.788 21.7196 824.999 16.3771 811.34C11.0346 797.84 7.19467 787.992 4.85733 781.798C2.51999 775.604 1.35132 772.427 1.35132 772.109C0.349599 770.362 0.0156928 768.456 0.0156928 766.392C-0.15126 763.056 1.01741 759.88 3.35475 757.338C5.85905 754.956 9.36506 753.527 12.8711 753.844C15.8762 753.844 18.7144 754.48 21.2187 755.909C23.3891 757.18 25.2256 759.086 26.0604 761.309L83.3252 910.131L104.361 857.4C98.5179 842.311 93.5093 829.446 89.3355 818.646C85.1617 807.846 81.8226 799.11 79.1514 792.439C76.4801 785.61 74.6437 780.845 73.475 777.51C72.8072 775.762 72.1394 774.015 71.8055 772.109C70.8037 770.362 70.4698 768.298 70.4698 766.233C70.3029 762.897 71.4716 759.721 73.8089 757.18C76.3132 754.638 79.6523 753.368 83.3252 753.685C86.3304 753.685 89.1686 754.321 91.6729 755.75C93.8432 757.021 95.6797 758.927 96.5145 761.15L119.053 821.981L142.76 761.309Z" fill="#1B1B1B"/>
<path d="M452.19 917.682C442.62 928.301 431.297 937.177 418.697 944.309C405.778 951.599 391.264 955.403 376.432 955.403C349.797 955.561 324.119 945.418 304.98 927.033C295.57 917.999 288.233 907.222 283.129 895.335C277.707 882.656 274.995 869.026 275.155 855.237C275.155 841.765 277.707 828.294 282.97 815.773C287.914 803.728 295.251 792.633 304.501 783.282C313.752 773.931 324.757 766.641 336.878 761.569C349.797 756.18 363.513 753.486 377.548 753.645C390.786 753.645 404.024 756.339 415.985 761.886C427.947 767.116 438.952 774.565 448.203 783.916C457.453 793.267 464.949 804.045 470.212 816.09C475.795 828.452 478.506 841.765 478.506 855.395V943.516C478.825 950.648 473.083 956.671 465.906 956.988C458.729 957.305 452.668 951.599 452.349 944.467C452.349 944.15 452.349 943.833 452.349 943.516L452.19 917.682ZM452.19 854.92C452.19 844.935 450.276 834.95 446.289 825.599C442.461 816.565 437.038 808.482 430.021 801.509C415.826 787.403 396.528 779.637 376.432 779.637C366.384 779.637 356.495 781.539 347.245 785.501C329.063 793.109 314.709 807.531 307.053 825.599C303.066 834.792 300.992 844.777 301.152 854.92C301.152 864.905 303.066 874.731 307.053 883.924C314.709 901.833 329.063 916.256 347.245 923.863C365.746 931.629 386.48 931.629 405.14 924.18C423.163 916.731 437.517 902.626 445.332 884.875C449.319 875.365 451.711 865.222 452.19 854.92Z" fill="#1B1B1B"/>
<path d="M635.285 753.648C645.1 753.489 654.765 755.242 663.976 758.748C671.677 761.616 679.077 765.6 685.872 770.381C691.157 773.887 695.989 778.349 700.066 783.449C703.388 787.751 705.049 791.098 705.049 793.329C705.049 796.357 703.69 799.385 701.425 801.297C699.311 803.369 696.442 804.644 693.422 804.644C690.1 804.644 686.929 803.369 684.664 800.819C677.868 794.604 670.318 789.504 662.013 785.998C653.255 782.174 643.892 780.261 634.53 780.261C625.017 780.261 615.654 782.174 606.896 786.158C598.44 789.982 590.738 795.401 584.245 802.413C570.806 816.596 563.256 835.879 563.256 855.958C563.256 865.998 565.068 875.878 568.843 885.121C576.091 903.129 589.832 917.631 606.896 925.28C615.654 929.264 625.017 931.177 634.53 931.177C643.892 931.336 653.255 929.424 662.013 925.599C670.469 921.774 678.019 916.515 684.664 909.822C686.929 907.273 690.1 905.998 693.422 905.998C696.593 905.998 699.613 907.273 702.029 909.504C704.445 911.735 705.955 915.081 705.804 918.587C705.804 920.818 704.294 924.165 701.123 928.468C697.348 933.567 692.667 937.87 687.382 941.376C671.526 951.894 653.104 957.153 634.379 956.993C621.544 957.153 608.859 954.603 597.081 949.503C585.755 944.563 575.487 937.551 566.578 928.468C557.668 919.384 550.722 908.547 545.89 896.436C540.756 883.687 538.189 869.982 538.34 856.117C538.189 829.345 548.155 803.688 565.974 784.883C574.732 775.64 585.151 768.15 596.628 763.05C609.01 757.154 622.148 754.126 635.285 753.648Z" fill="#1B1B1B"/>
<path d="M867.916 753.638C881.16 753.638 894.404 756.347 906.371 761.925C918.338 767.184 929.348 774.675 938.603 784.078C948.017 793.48 955.517 804.477 960.782 816.589C971.633 841.61 971.792 869.978 960.942 894.999C955.676 906.952 948.336 917.789 939.241 927.192C920.253 946.475 894.244 957.312 867.119 956.994C840.472 957.153 814.782 946.953 795.475 928.466C786.22 919.382 778.721 908.545 773.615 896.593C768.189 883.843 765.477 870.137 765.636 856.272C765.477 842.726 768.189 829.339 773.455 816.908C778.401 804.955 785.741 794.118 794.836 784.874C804.251 775.631 815.101 768.3 827.228 763.041C840.152 757.144 853.875 754.116 867.916 753.638ZM867.119 780.093C857.066 780.093 847.014 782.006 837.759 785.99C828.823 789.815 820.686 795.234 813.824 802.086C806.963 809.099 801.379 817.226 797.549 826.311C793.56 835.554 791.645 845.594 791.645 855.794C791.645 865.834 793.56 875.715 797.549 884.959C805.208 902.967 819.728 917.47 837.759 925.12C847.014 929.104 856.907 931.016 866.959 931.016C877.012 931.016 887.064 929.104 896.478 925.12C914.668 917.47 929.189 903.127 936.848 884.959C940.837 875.715 942.752 865.834 942.752 855.794C942.752 845.754 940.837 835.713 936.848 826.311C933.018 817.226 927.593 809.099 920.572 802.086C906.531 788.062 887.224 780.093 867.119 780.093Z" fill="#1B1B1B"/>
<path d="M789.878 246.772C787.619 243.78 785.227 240.788 782.968 237.796L782.835 237.666C777.387 230.641 771.939 223.747 766.359 216.982L766.093 217.503L730.615 174.835C677.73 117.987 619.795 65.9532 557.476 19.1225C537.146 6.37418 512.829 0 488.513 0C464.196 0 439.88 6.37418 419.549 19.1225C359.489 64.2621 303.415 114.215 252.124 168.721L251.858 168.981L246.278 174.835C246.278 174.965 246.411 175.095 246.411 175.225L210.667 217.242C210.667 217.112 210.534 217.112 210.534 216.982L205.086 223.747C198.973 231.292 192.994 238.967 187.014 246.772C160.971 286.448 160.971 342.124 187.014 381.8C254.117 467.266 332.249 543.756 419.549 609.45C460.077 634.946 516.948 634.946 557.476 609.45C644.776 543.756 722.908 467.266 790.011 381.8C816.055 342.124 816.055 286.448 789.878 246.772Z" fill="#1B1B1B"/>
<path d="M425.53 44.6192C368.526 87.2872 315.508 135.028 267.273 186.932C280.428 212.039 286.939 224.397 299.562 249.113C299.695 249.373 299.961 249.634 300.094 249.894C327.865 304.269 355.105 358.905 382.478 413.541C392.842 434.355 406.13 446.583 418.089 446.453C428.719 446.323 440.545 436.696 450.644 419.785C460.211 438.257 464.994 447.363 474.562 465.835C458.882 484.438 438.818 492.893 417.424 493.153C381.016 493.283 353.378 465.965 339.293 435.395C304.745 365.279 270.197 295.163 234.718 225.438C227.543 234.284 220.368 243.389 213.325 252.626C189.54 288.789 189.54 339.783 213.325 375.946C274.582 453.998 346.069 523.983 425.796 583.953C462.868 607.238 514.823 607.238 551.763 583.953C631.489 523.983 702.977 453.998 764.234 375.946C788.019 339.653 788.019 288.789 764.234 252.626C757.191 243.389 750.016 234.284 742.84 225.308C707.229 295.033 672.681 365.149 638.133 435.265C624.048 465.965 596.277 493.153 560.002 493.023C528.775 491.722 502.732 471.949 487.451 446.192C487.451 446.323 487.318 446.323 487.318 446.453C477.219 427.07 472.17 417.444 462.204 398.191C462.204 398.191 462.204 398.191 462.204 398.061C459.945 393.638 458.882 391.557 456.623 387.134C456.357 386.874 456.225 386.613 455.959 386.223L451.175 377.117C435.23 345.897 419.418 314.676 403.472 283.456C394.038 268.236 388.989 250.674 388.856 232.853C388.856 232.332 388.856 231.812 388.856 231.292C389.255 177.957 434.831 135.939 488.647 135.939C543.259 135.939 588.969 178.737 588.437 232.853C588.437 233.373 588.437 233.763 588.437 234.284C588.039 250.934 583.388 267.195 574.884 281.635C558.407 312.595 541.93 343.555 525.453 374.515C515.089 354.612 509.907 344.596 499.675 324.693C512.83 298.936 519.474 285.927 532.762 260.17C533.027 259.78 533.293 259.26 533.426 258.87C538.077 251.065 540.469 242.349 540.601 233.243C540.601 232.853 540.601 232.592 540.601 232.202C540.203 204.754 516.949 182.51 488.514 182.51C459.945 182.249 436.692 204.754 436.426 232.722C436.426 232.853 436.426 232.983 436.426 233.243C436.426 233.633 436.426 234.023 436.426 234.284C436.692 243.389 439.349 252.235 444.266 259.91C444.664 260.561 445.063 261.211 445.329 261.732C455.826 282.025 461.008 292.171 471.373 312.595L471.107 312.725C485.458 340.433 499.808 368.011 514.159 395.719C514.159 395.849 514.159 395.849 514.026 395.849C517.614 402.874 519.341 406.256 522.929 413.281C523.062 413.411 523.195 413.671 523.195 413.801C533.825 434.095 547.245 446.192 558.939 446.323C570.897 446.453 584.185 434.225 594.55 413.541C632.42 337.831 670.422 261.992 709.754 186.932C661.52 135.028 608.502 87.4172 551.497 44.6192C533.027 32.9115 510.704 27.0577 488.514 27.0577C466.323 27.0577 444 32.9115 425.53 44.6192Z" fill="url(#paint0_linear)"/>
<defs>
<linearGradient id="paint0_linear" x1="195.487" y1="319.275" x2="782.072" y2="319.275" gradientUnits="userSpaceOnUse">
<stop stop-color="#8FFF73"/>
<stop offset="1" stop-color="#8FFFF9"/>
</linearGradient>
</defs>
</svg>
