<svg width="133" height="132" viewBox="0 0 133 132" fill="none" xmlns="http://www.w3.org/2000/svg">
<g clip-path="url(#clip0)">
<path d="M68.1668 131.427C67.4328 131.427 66.6988 131.409 65.9459 131.371C57.4388 130.9 49.5152 127.795 44.7723 123.052L7.54429 85.8051C2.83903 81.0999 0.279373 73.4209 0.542867 64.7632C0.806361 56.3691 3.74244 48.5583 8.42888 43.8907L23.5045 28.8151C23.9374 28.3822 24.6338 28.3822 25.0667 28.8151C25.4995 29.248 25.4995 29.9443 25.0667 30.3772L9.99102 45.4529C5.69983 49.7441 3.00842 56.9902 2.76375 64.8197C2.51907 72.7622 4.89052 80.0083 9.10643 84.2242L46.3532 121.471C50.7197 125.837 58.0976 128.717 66.0777 129.15C74.1519 129.583 81.4356 127.381 85.5763 123.24L101.104 107.713C101.536 107.28 102.233 107.28 102.666 107.713C103.099 108.146 103.099 108.842 102.666 109.275L87.1384 124.802C82.9037 129.075 76.0716 131.427 68.1668 131.427ZM116.518 94.5569C116.236 94.5569 115.953 94.444 115.728 94.237C115.295 93.8041 115.295 93.1077 115.728 92.6748L123.275 85.1276C127.453 80.9493 130.032 74.0796 130.144 66.7771C130.276 59.2675 127.886 52.5108 123.614 48.2196L84.5976 9.20356C80.3252 4.93119 73.2108 2.31506 65.5695 2.22096C57.947 2.12685 50.9267 4.51712 46.7861 8.65775L37.0368 18.407C36.6039 18.8399 35.9076 18.8399 35.4747 18.407C35.0418 17.9742 35.0418 17.2778 35.4747 16.8449L45.224 7.0956C49.7598 2.54092 57.3824 -0.112849 65.5883 7.68674e-05C73.926 0.113003 81.4168 2.89852 86.1597 7.62259L125.176 46.6386C129.881 51.3438 132.497 58.684 132.365 66.7959C132.234 74.6631 129.41 82.0974 124.837 86.6897L117.29 94.237C117.083 94.444 116.8 94.5569 116.518 94.5569Z" fill="url(#paint0_linear)"/>
<g clip-path="url(#clip1)">
<path d="M96.9226 37.1499H37.125C34.588 37.1499 32.5238 39.2143 32.5238 41.7511V79.6999C32.5238 80.3347 33.039 80.8499 33.6738 80.8499H100.374C101.008 80.8499 101.524 80.3347 101.524 79.6999V41.7511C101.524 39.2143 99.4596 37.1499 96.9226 37.1499ZM99.2238 78.55H34.8238V41.7511C34.8238 40.4815 35.8566 39.45 37.125 39.45H96.9226C98.191 39.45 99.2238 40.4815 99.2238 41.7511V78.55Z" fill="url(#paint1_linear)"/>
<path d="M100.374 78.55H33.6738C33.039 78.55 32.5238 79.0652 32.5238 79.6999V85.4488C32.5238 87.9857 34.588 90.0499 37.125 90.0499H96.9226C99.4596 90.0499 101.524 87.9857 101.524 85.4488V79.6999C101.524 79.0652 101.009 78.55 100.374 78.55ZM99.2238 85.4489C99.2238 86.7185 98.191 87.75 96.9226 87.75H37.125C35.8566 87.75 34.8238 86.7185 34.8238 85.4489V80.85H99.2239V85.4489H99.2238Z" fill="url(#paint2_linear)"/>
<path d="M70.4738 83.1501H63.5738C62.939 83.1501 62.4238 83.6653 62.4238 84.3C62.4238 84.9348 62.939 85.45 63.5738 85.45H70.4738C71.1085 85.45 71.6237 84.9348 71.6237 84.3C71.6237 83.6653 71.1085 83.1501 70.4738 83.1501Z" fill="url(#paint3_linear)"/>
<path d="M95.7738 41.75H38.2739C37.6391 41.75 37.1239 42.2652 37.1239 42.9V79.7C37.1239 80.3348 37.6391 80.85 38.2739 80.85H95.7739C96.4087 80.85 96.9239 80.3348 96.9239 79.7V42.9C96.9239 42.2652 96.4087 41.75 95.7738 41.75ZM94.6238 78.5499H39.4238V44.0499H94.6238V78.5499Z" fill="url(#paint4_linear)"/>
<path d="M81.9737 96.95H52.0738C50.1718 96.95 48.6238 98.498 48.6238 100.4C48.6238 102.302 50.1718 103.85 52.0738 103.85H81.9739C83.876 103.85 85.4239 102.302 85.4239 100.4C85.4239 98.498 83.8758 96.95 81.9737 96.95ZM81.9737 101.55H52.0738C51.4391 101.55 50.9239 101.034 50.9239 100.4C50.9239 99.7664 51.4391 99.2501 52.0738 99.2501H81.9739C82.6086 99.2501 83.1238 99.7664 83.1238 100.4C83.1238 101.034 82.6086 101.55 81.9737 101.55Z" fill="url(#paint5_linear)"/>
<path d="M79.6738 96.95C75.8581 96.95 73.9238 94.2418 73.9238 88.9001C73.9238 88.2653 73.4086 87.7501 72.7738 87.7501H61.2739C60.6391 87.7501 60.1239 88.2653 60.1239 88.9001C60.1239 94.2418 58.1896 96.95 54.3739 96.95C53.7391 96.95 53.2239 97.4653 53.2239 98.1C53.2239 98.7347 53.7391 99.25 54.3739 99.25H79.6738C80.3086 99.25 80.8238 98.7347 80.8238 98.1C80.8238 97.4653 80.3086 96.95 79.6738 96.95ZM59.9754 96.95C61.3911 95.3815 62.2248 93.0457 62.3927 90.05H71.656C71.8227 93.0457 72.6565 95.3815 74.0733 96.95H59.9754Z" fill="url(#paint6_linear)"/>
<path d="M87.4754 71.0335L84.6994 68.2575L86.2438 66.7131C86.5302 66.4267 86.6451 66.0104 86.5462 65.6183C86.4473 65.2261 86.1495 64.9156 85.7619 64.7983L74.2619 61.3483C73.856 61.2264 73.4179 61.338 73.1188 61.637C72.8187 61.9361 72.7083 62.3753 72.8302 62.7801L76.2802 74.2801C76.3963 74.6687 76.7079 74.9666 77.1001 75.0655C77.491 75.1621 77.9085 75.0493 78.1949 74.7631L79.821 73.1358L82.597 75.913C82.8121 76.1292 83.1054 76.2499 83.4101 76.2499C83.7148 76.2499 84.008 76.1292 84.2231 75.913L87.4753 72.6596C87.925 72.2101 87.925 71.4833 87.4754 71.0335ZM83.4101 73.4739L80.8824 70.945C80.5892 70.6518 80.2051 70.5057 79.821 70.5057C79.4357 70.5057 79.0516 70.6528 78.7596 70.9438L77.9293 71.7741L75.6465 64.1645L83.256 66.4473L82.3659 67.3375C82.1209 67.5835 81.9864 67.9102 81.9864 68.2575C81.9864 68.606 82.1221 68.9348 82.3682 69.1786L85.0362 71.8466L83.4101 73.4739Z" fill="url(#paint7_linear)"/>
<path d="M80.8238 46.35H48.6238C47.9891 46.35 47.4739 46.8652 47.4739 47.5V53.25C47.4739 53.8847 47.9891 54.4 48.6238 54.4H80.8238C81.4585 54.4 81.9738 53.8847 81.9738 53.25V47.5C81.9738 46.8652 81.4585 46.35 80.8238 46.35ZM79.6738 52.1H49.7738V48.65H79.6738V52.1V52.1Z" fill="url(#paint8_linear)"/>
<path d="M62.4239 59H53.2238C52.5891 59 52.0739 59.5152 52.0739 60.15V64.7499C52.0739 65.3847 52.5891 65.8999 53.2238 65.8999H62.4239C63.0586 65.8999 63.5738 65.3847 63.5738 64.7499V60.15C63.5738 59.5152 63.0586 59 62.4239 59ZM61.2738 63.6H54.3738V61.2999H61.2738V63.6V63.6Z" fill="url(#paint9_linear)"/>
<path d="M80.8238 46.35H48.6238C47.9891 46.35 47.4739 46.8652 47.4739 47.5V69.3499C47.4739 69.9847 47.9891 70.4999 48.6238 70.4999H76.0008C76.3653 70.4999 76.7068 70.3286 76.9231 70.0364C77.1405 69.7444 77.2072 69.3672 77.1025 69.0187L75.6466 64.1645L80.4939 65.6193C80.8424 65.724 81.2196 65.6573 81.5104 65.44C81.8025 65.2238 81.9739 64.8811 81.9739 64.5176V47.5C81.9737 46.8652 81.4585 46.35 80.8238 46.35ZM79.6738 62.9721L74.2607 61.3483C73.8548 61.2264 73.4167 61.338 73.1176 61.637C72.8175 61.9371 72.7071 62.3753 72.8289 62.7813L74.455 68.2001H49.7738V48.65H79.6738V62.9721V62.9721Z" fill="url(#paint10_linear)"/>
</g>
</g>
<defs>
<linearGradient id="paint0_linear" x1="0.524046" y1="65.7178" x2="132.364" y2="65.7178" gradientUnits="userSpaceOnUse">
<stop stop-color="#8FFF70"/>
<stop offset="1" stop-color="#8FFFFF"/>
</linearGradient>
<linearGradient id="paint1_linear" x1="32.5238" y1="59.3832" x2="101.524" y2="59.3832" gradientUnits="userSpaceOnUse">
<stop stop-color="#8FFF73"/>
<stop offset="1" stop-color="#8FFFF9"/>
</linearGradient>
<linearGradient id="paint2_linear" x1="32.5238" y1="84.4008" x2="101.524" y2="84.4008" gradientUnits="userSpaceOnUse">
<stop stop-color="#8FFF73"/>
<stop offset="1" stop-color="#8FFFF9"/>
</linearGradient>
<linearGradient id="paint3_linear" x1="62.4238" y1="84.3202" x2="71.6237" y2="84.3202" gradientUnits="userSpaceOnUse">
<stop stop-color="#8FFF73"/>
<stop offset="1" stop-color="#8FFFF9"/>
</linearGradient>
<linearGradient id="paint4_linear" x1="37.1239" y1="61.643" x2="96.9239" y2="61.643" gradientUnits="userSpaceOnUse">
<stop stop-color="#8FFF73"/>
<stop offset="1" stop-color="#8FFFF9"/>
</linearGradient>
<linearGradient id="paint5_linear" x1="48.6238" y1="100.461" x2="85.4239" y2="100.461" gradientUnits="userSpaceOnUse">
<stop stop-color="#8FFF73"/>
<stop offset="1" stop-color="#8FFFF9"/>
</linearGradient>
<linearGradient id="paint6_linear" x1="53.2239" y1="93.6009" x2="80.8238" y2="93.6009" gradientUnits="userSpaceOnUse">
<stop stop-color="#8FFF73"/>
<stop offset="1" stop-color="#8FFFF9"/>
</linearGradient>
<linearGradient id="paint7_linear" x1="72.7814" y1="68.906" x2="87.8126" y2="68.906" gradientUnits="userSpaceOnUse">
<stop stop-color="#8FFF73"/>
<stop offset="1" stop-color="#8FFFF9"/>
</linearGradient>
<linearGradient id="paint8_linear" x1="47.4739" y1="50.4456" x2="81.9738" y2="50.4456" gradientUnits="userSpaceOnUse">
<stop stop-color="#8FFF73"/>
<stop offset="1" stop-color="#8FFFF9"/>
</linearGradient>
<linearGradient id="paint9_linear" x1="52.0739" y1="62.5105" x2="63.5738" y2="62.5105" gradientUnits="userSpaceOnUse">
<stop stop-color="#8FFF73"/>
<stop offset="1" stop-color="#8FFFF9"/>
</linearGradient>
<linearGradient id="paint10_linear" x1="47.4739" y1="58.6368" x2="81.9739" y2="58.6368" gradientUnits="userSpaceOnUse">
<stop stop-color="#8FFF73"/>
<stop offset="1" stop-color="#8FFFF9"/>
</linearGradient>
<clipPath id="clip0">
<rect width="131.841" height="131.427" fill="white" transform="translate(0.523804)"/>
</clipPath>
<clipPath id="clip1">
<rect width="69" height="69" fill="white" transform="translate(32.5238 36)"/>
</clipPath>
</defs>
</svg>
