<svg width="133" height="132" viewBox="0 0 133 132" fill="none" xmlns="http://www.w3.org/2000/svg">
<g clip-path="url(#clip0)">
<path d="M68.3256 131.427C67.5915 131.427 66.8575 131.409 66.1047 131.371C57.5976 130.9 49.6739 127.795 44.931 123.052L7.70304 85.8051C2.99778 81.0999 0.438125 73.4209 0.70162 64.7632C0.965114 56.3691 3.90119 48.5583 8.58763 43.8907L23.6633 28.8151C24.0962 28.3822 24.7925 28.3822 25.2254 28.8151C25.6583 29.248 25.6583 29.9443 25.2254 30.3772L10.1498 45.4529C5.85858 49.7441 3.16717 56.9902 2.9225 64.8197C2.67783 72.7622 5.04928 80.0083 9.26518 84.2242L46.512 121.471C50.8785 125.837 58.2563 128.717 66.2364 129.15C74.3106 129.583 81.5944 127.381 85.735 123.24L101.262 107.713C101.695 107.28 102.392 107.28 102.824 107.713C103.257 108.146 103.257 108.842 102.824 109.275L87.2972 124.802C83.0624 129.075 76.2304 131.427 68.3256 131.427ZM116.677 94.5569C116.394 94.5569 116.112 94.444 115.886 94.237C115.453 93.8041 115.453 93.1077 115.886 92.6748L123.434 85.1276C127.612 80.9493 130.19 74.0796 130.303 66.7771C130.435 59.2675 128.045 52.5108 123.772 48.2196L84.7563 9.20356C80.4839 4.93119 73.3696 2.31506 65.7283 2.22096C58.1057 2.12685 51.0855 4.51712 46.9449 8.65775L37.1956 18.407C36.7627 18.8399 36.0663 18.8399 35.6334 18.407C35.2006 17.9742 35.2006 17.2778 35.6334 16.8449L45.3827 7.0956C49.9186 2.54092 57.5411 -0.112849 65.7471 7.68674e-05C74.0848 0.113003 81.5756 2.89852 86.3185 7.62259L125.334 46.6386C130.04 51.3438 132.656 58.684 132.524 66.7959C132.392 74.6631 129.569 82.0974 124.996 86.6897L117.448 94.237C117.241 94.444 116.959 94.5569 116.677 94.5569Z" fill="url(#paint0_linear)"/>
<path d="M91.2716 73.6472C91.3578 73.3011 91.3517 72.9298 91.2403 72.5682V72.5678L90.2791 69.4404C89.5019 66.9122 87.8728 64.6846 85.692 63.1684C85.6851 63.1644 85.6786 63.1595 85.6721 63.155L84.4009 62.3173C82.9201 61.3407 80.9448 62.4075 80.9448 64.1845V65.5703C80.9448 66.6424 81.1345 67.6699 81.4957 68.6209C80.038 69.054 78.8534 70.1533 78.3211 71.6159C75.7206 72.5215 73.396 74.2168 71.7324 76.4318C69.9684 78.7804 69.0088 81.5637 68.9413 84.5002C66.1747 85.9095 63.4088 86.9101 60.6889 87.4862C62.8603 82.52 62.9071 76.8445 59.2052 72.8964C60.7843 71.9104 62.2895 70.8818 63.6903 69.8255C65.7022 68.3085 67.5787 66.6798 69.2675 64.9849C75.7389 58.5102 79.4619 51.3157 82.6706 44.3868C83.4405 42.7244 83.7972 41.6145 85.2329 40.8605C86.1909 40.3567 86.7869 39.367 86.7869 38.2742V34.205H88.7341V39.003C88.7341 39.9001 89.1318 40.7305 89.8225 41.2805C90.4575 41.788 90.9129 42.4603 91.1753 43.279C93.331 50.0652 92.2727 57.2289 89.2346 63.6661C88.9311 64.3044 89.3935 65.058 90.1134 65.058C90.4884 65.058 90.8341 64.839 90.9937 64.501L90.9946 64.4998C92.0049 62.3584 92.7927 60.195 93.3355 58.0682C94.6903 52.7656 94.5071 47.3379 93.0303 42.6866C92.6566 41.5056 91.9659 40.4908 91.0323 39.7518C90.813 39.5787 90.6817 39.298 90.6817 39.003V34.205C90.6817 33.1293 89.8079 32.2538 88.7341 32.2538H86.7869C85.7127 32.255 84.8401 33.1293 84.8392 34.205V38.2742C84.8392 38.6345 84.639 38.9705 84.3314 39.1302C82.3005 40.1897 81.748 41.7445 80.905 43.5621C78.3536 49.0735 74.6522 56.8445 67.8915 63.6044C64.9709 66.5356 61.6221 69.1389 57.6703 71.5509C55.9782 70.3394 53.9225 69.6354 51.6613 69.5387C50.3949 69.4924 49.1449 69.6699 47.9244 70.0676C49.7433 66.4718 52.4376 63.9854 55.9648 62.657C57.0321 63.7271 58.3049 62.2413 57.4266 61.3622L56.9078 60.8422C56.6465 60.5805 56.2606 60.4895 55.9108 60.6057C52.1728 61.8546 49.1558 64.282 47.0197 67.7178C46.6841 65.1604 45.7611 62.607 43.2183 60.9937L39.9426 58.9157C39.2154 58.4542 38.3041 58.4948 37.6204 59.0185C36.9435 59.5368 36.6673 60.3973 36.9171 61.2107L37.8783 64.3385C38.4877 66.3215 39.6232 68.1176 41.1366 69.5326C37.3279 69.5549 33.6958 71.4587 31.6962 75.0663C30.0383 78.095 29.8396 81.7847 31.1218 85.7376C32.0846 88.6969 33.8275 91.5253 36.0298 93.702C38.3529 95.9978 40.9842 97.3393 43.4283 97.4795C43.9357 97.514 44.4456 97.5047 44.9412 97.4523C45.8021 97.3609 46.6756 97.3609 47.5357 97.4519C47.8391 97.4844 48.1459 97.4998 48.4514 97.4998C48.648 97.4998 48.8442 97.4933 49.0384 97.4803C51.5061 97.3389 54.148 95.9861 56.4771 93.67C57.6561 92.4975 58.7014 91.1385 59.5655 89.6764C62.6897 89.1828 65.8712 88.159 69.0482 86.6237C69.9306 93.4916 75.8023 98.8157 82.892 98.8157C90.5883 98.8157 96.8496 92.5422 96.8496 84.8313C96.8496 80.4018 94.7805 76.2855 91.2716 73.6472V73.6472ZM39.7403 63.764L38.7794 60.637C38.7717 60.613 38.7672 60.5972 38.803 60.5692C38.8814 60.5094 38.6421 60.4002 42.1766 62.6427C44.589 64.1731 45.1302 66.8829 45.2399 70.1034L43.5664 69.0004C41.7472 67.732 40.3882 65.8729 39.7403 63.764V63.764ZM59.5046 85.1335C57.8174 90.3203 53.253 95.2849 48.9174 95.5331C48.5237 95.5595 48.128 95.5526 47.7416 95.512C47.2427 95.4591 46.7414 95.4327 46.2393 95.4327C45.7375 95.4327 45.2354 95.4591 44.7373 95.512C44.3522 95.553 43.9565 95.5595 43.551 95.5323C41.5688 95.4189 39.3836 94.2757 37.3981 92.313C35.4127 90.3512 33.8417 87.8015 32.9743 85.1339C31.8624 81.7067 32.0111 78.5492 33.4021 76.0092C34.9179 73.2751 37.6484 71.6273 40.8884 71.4887C42.3875 71.4339 43.8679 71.767 45.2979 72.4772L45.7042 72.7449C46.0841 72.996 46.609 72.9586 46.9486 72.5958C48.4497 71.804 50.011 71.4323 51.5845 71.4887C57.6459 71.7475 62.0344 77.3357 59.5046 85.1335V85.1335ZM82.892 64.1845C82.892 63.9578 83.1398 63.8217 83.3308 63.9473C84.5016 64.7192 85.9971 65.5512 87.3142 67.628C87.3435 67.8978 87.4824 68.1521 87.7144 68.3187C88 68.8602 88.2376 69.4274 88.418 70.0144L89.3793 73.1422C89.3862 73.1658 89.3914 73.1816 89.3549 73.2097C89.3069 73.2462 89.2781 73.2275 89.257 73.2141L85.9813 71.1357C82.6483 69.0215 82.892 65.9461 82.892 64.1845V64.1845ZM82.892 96.864C76.2695 96.864 70.882 91.4664 70.882 84.8313C70.882 79.9809 73.7096 75.7159 78.0485 73.8154C78.1225 74.5166 78.3496 75.1983 78.7233 75.8175C78.9062 76.121 79.2275 76.2879 79.5578 76.2879C79.7293 76.2879 79.9031 76.2428 80.0604 76.1474C80.5207 75.8687 80.6685 75.269 80.3903 74.8079C79.9913 74.1477 79.8715 73.3681 80.0518 72.6125C80.2879 71.6228 81.0037 70.8562 81.9182 70.5348V73.2552C81.9182 73.7894 82.3293 74.2554 82.8624 74.2716C83.4137 74.2879 83.8658 73.8451 83.8658 73.2966V71.9884C84.4756 72.5146 84.8961 72.7571 85.8106 73.3376C85.8037 73.854 85.6619 74.3643 85.3942 74.8079C85.1159 75.269 85.2634 75.8687 85.7237 76.1474C85.8813 76.2428 86.0548 76.2879 86.2266 76.2879C86.5561 76.2879 86.8775 76.1206 87.0611 75.8175C87.3122 75.4015 87.4978 74.9501 87.6144 74.4817L88.2149 74.8632C88.5521 75.0769 88.9287 75.1825 89.3041 75.1825C89.5154 75.1825 89.7262 75.1484 89.9297 75.0813C93.0527 77.3458 94.9024 80.9482 94.9024 84.8317C94.9024 91.4664 89.5149 96.864 82.892 96.864V96.864Z" fill="url(#paint1_linear)"/>
<path d="M48.7211 59.7355C52.8378 59.7355 56.187 56.3798 56.187 52.255C56.187 48.1306 52.8378 44.7752 48.7211 44.7752C44.6045 44.7752 41.2556 48.1306 41.2556 52.255C41.2556 56.3798 44.6045 59.7355 48.7211 59.7355ZM48.7211 46.7265C51.764 46.7265 54.2394 49.2068 54.2394 52.255C54.2394 55.3036 51.764 57.7838 48.7211 57.7838C45.6786 57.7838 43.2028 55.3036 43.2028 52.255C43.2028 49.2068 45.6786 46.7265 48.7211 46.7265Z" fill="url(#paint2_linear)"/>
<path d="M46.7646 51.6444C46.9547 51.8345 47.2041 51.93 47.4532 51.93C47.7022 51.93 47.9517 51.8345 48.1418 51.6444L48.427 51.3583L48.7126 51.6444C48.9023 51.8345 49.1518 51.93 49.4008 51.93C49.6499 51.93 49.8993 51.8345 50.0894 51.6444C50.4693 51.2629 50.4693 50.6454 50.0894 50.2643L49.8042 49.9787L50.0894 49.6927C50.4693 49.3116 50.4693 48.6937 50.0894 48.313C49.7092 47.9319 49.0929 47.9319 48.7126 48.313L48.427 48.5986L48.1418 48.313C47.7611 47.9319 47.1448 47.9319 46.7646 48.313C46.3847 48.6937 46.3847 49.3116 46.7646 49.6927L47.0498 49.9787L46.7646 50.2643C46.3847 50.6454 46.3847 51.2633 46.7646 51.6444Z" fill="url(#paint3_linear)"/>
<path d="M66.4724 43.2087C68.0987 41.5792 68.5302 39.3138 67.7968 37.2468L68.0833 37.1281C68.5801 36.9217 68.8162 36.3509 68.6102 35.8533C68.4042 35.3552 67.8346 35.1191 67.3378 35.3251L66.8665 35.5205C66.8576 35.5079 66.849 35.4949 66.8393 35.4819L67.2009 35.1196C67.5811 34.7385 67.5811 34.1206 67.2009 33.7399C66.8206 33.3588 66.2039 33.3588 65.8236 33.7403L65.4608 34.1035C65.4482 34.0937 65.4356 34.0852 65.4235 34.0755L65.6189 33.6026C65.8244 33.1049 65.5888 32.5341 65.0919 32.3281C64.5955 32.1217 64.0255 32.3586 63.8195 32.8563L63.7017 33.1415C61.6212 32.396 59.3762 32.8408 57.7507 34.4695C55.4773 36.7475 53.0767 42.7569 55.639 45.3245C58.2167 47.9071 64.2258 45.4594 66.4724 43.2087V43.2087ZM56.7989 40.1637C57.2689 38.5086 58.2045 36.7751 59.128 35.8496C60.7794 34.1949 63.1813 34.4838 64.8197 36.1255C66.5488 37.8578 66.6646 40.2564 65.0952 41.829C64.1722 42.7537 62.4415 43.6917 60.7896 44.1626C59.0557 44.6562 57.6451 44.5749 57.0162 43.9444C56.3873 43.3143 56.3061 41.9009 56.7989 40.1637Z" fill="url(#paint4_linear)"/>
<path d="M62.06 40.2706C62.4399 39.8895 62.4399 39.272 62.06 38.8905C61.6798 38.5098 61.0635 38.5098 60.6828 38.8905C60.3025 39.272 60.3025 39.8895 60.6828 40.2706C61.0635 40.6517 61.6798 40.6517 62.06 40.2706Z" fill="url(#paint5_linear)"/>
<path d="M59.3055 43.0303C59.6862 42.6493 59.6862 42.0317 59.3055 41.6503C58.9253 41.2692 58.309 41.2692 57.9283 41.6503C57.548 42.0317 57.548 42.6493 57.9283 43.0303C58.309 43.4114 58.9253 43.4114 59.3055 43.0303Z" fill="url(#paint6_linear)"/>
<path d="M59.3055 40.2706C59.6862 39.8895 59.6862 39.272 59.3055 38.8905C58.9253 38.5098 58.309 38.5098 57.9283 38.8905C57.548 39.272 57.548 39.8895 57.9283 40.2706C58.309 40.6517 58.9253 40.6517 59.3055 40.2706Z" fill="url(#paint7_linear)"/>
<path d="M62.06 43.0303C62.4399 42.6493 62.4399 42.0317 62.06 41.6503C61.6798 41.2692 61.0635 41.2692 60.6828 41.6503C60.3025 42.0317 60.3025 42.6493 60.6828 43.0303C61.0635 43.4114 61.6798 43.4114 62.06 43.0303Z" fill="url(#paint8_linear)"/>
<path d="M64.8141 40.2706C65.1943 39.8895 65.1943 39.272 64.8141 38.8905C64.4342 38.5098 63.8171 38.5098 63.4372 38.8905C63.057 39.272 63.057 39.8895 63.4372 40.2706C63.8171 40.6517 64.4338 40.6517 64.8141 40.2706V40.2706Z" fill="url(#paint9_linear)"/>
<path d="M62.06 37.5108C62.4399 37.1302 62.4399 36.5118 62.06 36.1312C61.6798 35.7501 61.0635 35.7501 60.6828 36.1312C60.3025 36.5127 60.3025 37.1302 60.6828 37.5108C61.0635 37.8923 61.6798 37.8923 62.06 37.5108Z" fill="url(#paint10_linear)"/>
<path d="M66.4513 45.8981C66.0698 46.1269 65.7481 46.4385 65.5072 46.8033C64.4399 46.2711 63.0757 46.4023 62.125 47.3546C61.1894 48.2927 61.0395 49.6565 61.5839 50.7433C60.9911 51.1312 60.5499 51.7289 60.3606 52.4378C60.1729 53.1402 60.2521 53.8691 60.5771 54.5118C59.9019 54.9538 59.4351 55.6595 59.2946 56.4594C59.0272 57.9748 59.9909 59.4459 61.488 59.8086C62.7324 60.1101 63.9585 59.5718 64.6199 58.5671C65.4726 58.9977 66.5305 59.0087 67.4308 58.4676C67.8147 58.2364 68.1389 57.9215 68.3807 57.5527C69.4435 58.0869 70.8073 57.9683 71.7632 57.0111C72.694 56.0779 72.8496 54.7161 72.3056 53.6257C72.9296 53.2194 73.3822 52.582 73.5557 51.8219C73.6991 51.1946 73.6215 50.5568 73.3737 49.9974C73.8624 49.8089 74.1179 49.2661 73.9449 48.7668C73.7681 48.2581 73.2132 47.9896 72.7045 48.1659L72.1309 48.3662L72.5152 47.9807C72.8955 47.6 72.8955 46.9821 72.5152 46.601C72.135 46.2203 71.5182 46.2203 71.138 46.601L70.7537 46.9865L70.9531 46.4113C71.1299 45.9022 70.8617 45.346 70.3535 45.1689C69.8583 44.9966 69.3183 45.2493 69.1286 45.734C68.2958 45.368 67.3012 45.3887 66.4513 45.8981V45.8981ZM68.8946 48.6664C68.8751 48.7379 68.8653 48.8094 68.8625 48.8805L68.5086 49.2356C67.623 50.1229 68.9157 51.5867 69.9623 50.5385C70.3003 50.1985 70.6647 50.1278 71.0206 50.2476C71.9221 50.5515 71.8949 51.8987 70.9259 52.1237C69.9659 52.3472 69.645 53.5501 70.3636 54.2266C70.5546 54.407 70.6667 54.6649 70.6708 54.9351C70.6842 55.7992 69.6019 56.2697 68.9819 55.6075C68.3136 54.8928 67.1078 55.2158 66.8868 56.171C66.715 56.9124 65.7716 57.2061 65.224 56.6191C64.5537 55.9028 63.3511 56.2278 63.1277 57.1866C63.0147 57.6705 62.5097 58.0491 61.9458 57.9122C61.1264 57.7131 60.9139 56.5996 61.657 56.1356C62.0694 55.8776 62.4224 56.0324 62.5666 56.0544C63.7663 56.3127 64.9408 55.7683 65.5685 54.7608C65.6559 54.8075 65.746 54.8502 65.8387 54.8884C67.8891 55.7338 70.1093 53.9747 69.0108 52.8741C68.6305 52.4934 68.0138 52.4934 67.6335 52.8741C67.0384 53.4709 66.0556 53.0606 65.9768 52.2997C65.9094 50.7351 63.9808 50.989 64.0239 52.2156C64.0336 53.0338 64.2189 53.5477 63.707 53.9666C63.4702 54.1612 63.1553 54.2091 62.9469 54.1396C62.7169 54.1396 62.047 53.672 62.242 52.9424C62.335 52.5934 62.6117 52.3253 62.9635 52.2424C63.9191 52.0189 64.2449 50.8127 63.5266 50.1412C63.3341 49.9612 63.2211 49.7032 63.2162 49.4327C63.2016 48.5637 64.2977 48.0981 64.9043 48.7457C65.5726 49.4595 66.7743 49.1369 66.9977 48.1842C67.0571 47.9331 67.222 47.7101 67.4507 47.5732C68.184 47.1336 69.1233 47.8088 68.8946 48.6664V48.6664Z" fill="url(#paint11_linear)"/>
<path d="M77.8279 78.34C77.8279 78.8783 77.3912 79.315 76.8533 79.315C76.3142 79.315 75.8783 78.8783 75.8783 78.34C75.8783 77.8013 76.3142 77.365 76.8533 77.365C77.3912 77.365 77.8279 77.8013 77.8279 78.34V78.34Z" fill="url(#paint12_linear)"/>
<path d="M80.428 81.9801C80.428 82.5192 79.9913 82.9552 79.453 82.9552C78.9147 82.9552 78.4779 82.5192 78.4779 81.9801C78.4779 81.4418 78.9147 81.0051 79.453 81.0051C79.9913 81.0051 80.428 81.4418 80.428 81.9801Z" fill="url(#paint13_linear)"/>
<path d="M75.2274 84.8402C75.2274 85.3793 74.7915 85.8153 74.2524 85.8153C73.7141 85.8153 73.2774 85.3793 73.2774 84.8402C73.2774 84.3019 73.7141 83.8652 74.2524 83.8652C74.7915 83.8652 75.2274 84.3019 75.2274 84.8402V84.8402Z" fill="url(#paint14_linear)"/>
</g>
<defs>
<linearGradient id="paint0_linear" x1="0.682798" y1="65.7178" x2="132.523" y2="65.7178" gradientUnits="userSpaceOnUse">
<stop stop-color="#8FFF70"/>
<stop offset="1" stop-color="#8FFFFF"/>
</linearGradient>
<linearGradient id="paint1_linear" x1="30.2874" y1="66.1186" x2="96.8496" y2="66.1186" gradientUnits="userSpaceOnUse">
<stop stop-color="#8FFF73"/>
<stop offset="1" stop-color="#8FFFF9"/>
</linearGradient>
<linearGradient id="paint2_linear" x1="41.2556" y1="52.3866" x2="56.187" y2="52.3866" gradientUnits="userSpaceOnUse">
<stop stop-color="#8FFF73"/>
<stop offset="1" stop-color="#8FFFF9"/>
</linearGradient>
<linearGradient id="paint3_linear" x1="46.4797" y1="50.0128" x2="50.3743" y2="50.0128" gradientUnits="userSpaceOnUse">
<stop stop-color="#8FFF73"/>
<stop offset="1" stop-color="#8FFFF9"/>
</linearGradient>
<linearGradient id="paint4_linear" x1="54.5351" y1="39.4672" x2="68.6846" y2="39.4672" gradientUnits="userSpaceOnUse">
<stop stop-color="#8FFF73"/>
<stop offset="1" stop-color="#8FFFF9"/>
</linearGradient>
<linearGradient id="paint5_linear" x1="60.3976" y1="39.5978" x2="62.3449" y2="39.5978" gradientUnits="userSpaceOnUse">
<stop stop-color="#8FFF73"/>
<stop offset="1" stop-color="#8FFFF9"/>
</linearGradient>
<linearGradient id="paint6_linear" x1="57.6431" y1="42.3574" x2="59.591" y2="42.3574" gradientUnits="userSpaceOnUse">
<stop stop-color="#8FFF73"/>
<stop offset="1" stop-color="#8FFFF9"/>
</linearGradient>
<linearGradient id="paint7_linear" x1="57.6431" y1="39.5978" x2="59.591" y2="39.5978" gradientUnits="userSpaceOnUse">
<stop stop-color="#8FFF73"/>
<stop offset="1" stop-color="#8FFFF9"/>
</linearGradient>
<linearGradient id="paint8_linear" x1="60.3976" y1="42.3574" x2="62.3449" y2="42.3574" gradientUnits="userSpaceOnUse">
<stop stop-color="#8FFF73"/>
<stop offset="1" stop-color="#8FFFF9"/>
</linearGradient>
<linearGradient id="paint9_linear" x1="63.152" y1="39.5978" x2="65.0993" y2="39.5978" gradientUnits="userSpaceOnUse">
<stop stop-color="#8FFF73"/>
<stop offset="1" stop-color="#8FFFF9"/>
</linearGradient>
<linearGradient id="paint10_linear" x1="60.3976" y1="36.8383" x2="62.3449" y2="36.8383" gradientUnits="userSpaceOnUse">
<stop stop-color="#8FFF73"/>
<stop offset="1" stop-color="#8FFFF9"/>
</linearGradient>
<linearGradient id="paint11_linear" x1="59.2501" y1="52.6331" x2="73.999" y2="52.6331" gradientUnits="userSpaceOnUse">
<stop stop-color="#8FFF73"/>
<stop offset="1" stop-color="#8FFFF9"/>
</linearGradient>
<linearGradient id="paint12_linear" x1="75.8783" y1="78.3571" x2="77.8279" y2="78.3571" gradientUnits="userSpaceOnUse">
<stop stop-color="#8FFF73"/>
<stop offset="1" stop-color="#8FFFF9"/>
</linearGradient>
<linearGradient id="paint13_linear" x1="78.4779" y1="81.9972" x2="80.428" y2="81.9972" gradientUnits="userSpaceOnUse">
<stop stop-color="#8FFF73"/>
<stop offset="1" stop-color="#8FFFF9"/>
</linearGradient>
<linearGradient id="paint14_linear" x1="73.2774" y1="84.8573" x2="75.2274" y2="84.8573" gradientUnits="userSpaceOnUse">
<stop stop-color="#8FFF73"/>
<stop offset="1" stop-color="#8FFFF9"/>
</linearGradient>
<clipPath id="clip0">
<rect width="131.841" height="131.427" fill="white" transform="translate(0.682556)"/>
</clipPath>
</defs>
</svg>
