<svg width="133" height="132" viewBox="0 0 133 132" fill="none" xmlns="http://www.w3.org/2000/svg">
<g clip-path="url(#clip0)">
<path d="M68.4843 131.427C67.7503 131.427 67.0162 131.409 66.2634 131.371C57.7563 130.9 49.8326 127.795 45.0897 123.052L7.86176 85.8051C3.15651 81.0999 0.596847 73.4209 0.860341 64.7632C1.12384 56.3691 4.05992 48.5583 8.74635 43.8907L23.822 28.8151C24.2549 28.3822 24.9512 28.3822 25.3841 28.8151C25.817 29.248 25.817 29.9443 25.3841 30.3772L10.3085 45.4529C6.0173 49.7441 3.3259 56.9902 3.08122 64.8197C2.83655 72.7622 5.208 80.0083 9.42391 84.2242L46.6707 121.471C51.0372 125.837 58.415 128.717 66.3951 129.15C74.4694 129.583 81.7531 127.381 85.8937 123.24L101.421 107.713C101.854 107.28 102.55 107.28 102.983 107.713C103.416 108.146 103.416 108.842 102.983 109.275L87.4559 124.802C83.2211 129.075 76.3891 131.427 68.4843 131.427ZM116.835 94.5569C116.553 94.5569 116.271 94.444 116.045 94.237C115.612 93.8041 115.612 93.1077 116.045 92.6748L123.592 85.1276C127.771 80.9493 130.349 74.0796 130.462 66.7771C130.594 59.2675 128.203 52.5108 123.931 48.2196L84.915 9.20356C80.6427 4.93119 73.5283 2.31506 65.887 2.22096C58.2645 2.12685 51.2442 4.51712 47.1036 8.65775L37.3543 18.407C36.9214 18.8399 36.225 18.8399 35.7922 18.407C35.3593 17.9742 35.3593 17.2778 35.7922 16.8449L45.5415 7.0956C50.0773 2.54092 57.6998 -0.112849 65.9058 7.68674e-05C74.2435 0.113003 81.7343 2.89852 86.4772 7.62259L125.493 46.6386C130.198 51.3438 132.815 58.684 132.683 66.7959C132.551 74.6631 129.728 82.0974 125.154 86.6897L117.607 94.237C117.4 94.444 117.118 94.5569 116.835 94.5569Z" fill="url(#paint0_linear)"/>
</g>
<path d="M96.6198 83.3157C96.8397 83.0906 97.0491 82.854 97.2343 82.5986C98.344 81.0587 98.7628 79.1942 98.4027 77.2826L97.2511 72.7287C96.3361 69.1086 93.6865 66.303 90.325 65.099C92.1246 63.7611 93.2981 61.6266 93.2981 59.2188C93.2981 55.1789 90.0099 51.8906 85.97 51.8906C81.9301 51.8906 78.6419 55.1789 78.6419 59.2188C78.6419 61.2685 79.4909 63.1225 80.8518 64.4531L72.884 64.4542C70.8636 64.4542 69.22 66.0967 69.22 68.1172C69.22 68.6815 69.3592 69.2101 69.5885 69.6875H67.1262V56.9355L70.0219 56.3566C74.4093 55.4793 77.595 51.5944 77.595 47.1179V36.7109C77.595 34.6905 75.9514 33.0469 73.9309 33.0469C71.9104 33.0469 70.2669 34.6905 70.2669 36.7109V45.6094C70.2669 47.3409 68.8578 48.75 67.1262 48.75H63.8694C65.2314 47.4184 66.0794 45.5654 66.0794 43.5156C66.0794 39.4757 62.7911 36.1875 58.7512 36.1875C54.7113 36.1875 51.4231 39.4757 51.4231 43.5156C51.4231 45.7371 52.4208 47.7272 53.9869 49.0724C51.8806 49.5749 49.9533 50.6689 48.4207 52.2413C47.7161 52.0152 46.9676 51.8906 46.1887 51.8906C42.1488 51.8906 38.8606 55.1789 38.8606 59.2188C38.8606 61.6266 40.0342 63.7611 41.8327 65.098C38.4712 66.303 35.8226 69.1075 34.9066 72.7276L33.7424 77.3433C33.3959 79.1931 33.8157 81.0587 34.9244 82.5976C35.1097 82.854 35.318 83.0906 35.5389 83.3147C34.47 83.4089 33.6262 84.2987 33.6262 85.3906V87.4844C33.6262 88.6391 34.5653 89.5781 35.72 89.5781H39.9075V95.8594H37.8137V97.9531H48.2825V95.8594H46.1887V89.5781H47.044L48.3746 94.6429C48.786 96.5608 50.5081 97.9531 52.4689 97.9531C52.7589 97.9531 53.052 97.9228 53.3441 97.861C54.4402 97.6255 55.3782 96.9795 55.9864 96.0394C56.5936 95.1014 56.7988 93.9802 56.5517 92.8391L54.1324 83.6361C53.6111 81.2063 52.023 79.2078 49.9365 78.0625H61.8919V97.9531H70.2669V78.0625H82.218C80.1336 79.2036 78.5508 81.1906 78.0368 83.59L75.5954 92.8842C75.3589 93.9802 75.5651 95.1004 76.1723 96.0394C76.7805 96.9795 77.7196 97.6265 78.8198 97.862C79.1067 97.9228 79.3998 97.9531 79.6898 97.9531C81.6506 97.9531 83.3727 96.5608 83.7715 94.689L85.1147 89.5781H87.0169V95.8594H84.9231V97.9531H95.3919V95.8594H93.2981V89.5781H96.4387C97.5934 89.5781 98.5325 88.6391 98.5325 87.4844V85.3906C98.5325 84.2987 97.6887 83.4089 96.6198 83.3157V83.3157ZM80.7356 59.2188C80.7356 56.3325 83.0837 53.9844 85.97 53.9844C88.8562 53.9844 91.2044 56.3325 91.2044 59.2188C91.2044 62.105 88.8562 64.4531 85.97 64.4531C83.0837 64.4531 80.7356 62.105 80.7356 59.2188ZM72.8924 71.7812H74.469H83.1078L84.4237 75.9688H47.735L49.0509 71.7812H57.7064H59.2663H72.8924ZM59.7667 59.8636L58.7512 60.8791L57.7358 59.8636L58.3796 50.8438H59.1239L59.7667 59.8636ZM53.5169 43.5156C53.5169 40.6294 55.865 38.2812 58.7512 38.2812C61.6375 38.2812 63.9856 40.6294 63.9856 43.5156C63.9856 46.4019 61.6375 48.75 58.7512 48.75C55.865 48.75 53.5169 46.4019 53.5169 43.5156ZM56.2796 50.8647L55.5792 60.6676L58.7512 63.8397L61.9233 60.6676L61.2219 50.8438H67.1262C70.0125 50.8438 72.3606 48.4956 72.3606 45.6094V36.7109C72.3606 35.8452 73.0651 35.1406 73.9309 35.1406C74.7967 35.1406 75.5012 35.8452 75.5012 36.7109V47.1179C75.5012 50.5988 73.0243 53.6211 69.6105 54.3037L65.0325 55.2207V69.6875H62.5702C62.7995 69.2101 62.9387 68.6815 62.9387 68.1172C62.9387 66.0967 61.2951 64.4542 59.2747 64.4542L51.3069 64.4531C52.6678 63.1225 53.5169 61.2685 53.5169 59.2188C53.5169 56.7471 52.2826 54.5612 50.4024 53.2338C52.024 51.7912 54.0937 50.9526 56.2796 50.8647V50.8647ZM40.9544 59.2188C40.9544 56.3325 43.3025 53.9844 46.1887 53.9844C49.075 53.9844 51.4231 56.3325 51.4231 59.2188C51.4231 62.105 49.075 64.4531 46.1887 64.4531C43.3025 64.4531 40.9544 62.105 40.9544 59.2188ZM44.095 95.8594H42.0012V89.5781H44.095V95.8594ZM35.72 87.4844V85.3906H40.6392L45.9563 85.4388L46.4944 87.4844H35.72ZM52.0983 84.1218L54.5177 93.3259C54.6349 93.8724 54.5334 94.4335 54.2298 94.9025C53.9262 95.3726 53.4561 95.6971 52.9107 95.8133C51.7832 96.0499 50.6631 95.3129 50.4118 94.1572L47.9925 84.9509C47.7842 83.993 46.9236 83.2969 45.9448 83.2969H42.0054H40.6392C38.9936 83.2969 37.4913 82.5777 36.6234 81.3727C35.8529 80.3039 35.5598 79.0099 35.7859 77.7935L36.9375 73.2406C37.9331 69.3002 41.4684 66.5469 45.5344 66.5469L59.2747 66.5479C60.1404 66.5479 60.845 67.2525 60.845 68.1172C60.845 68.983 60.1362 69.6875 59.2663 69.6875H57.7064H47.5141L44.5556 79.1052L45.9741 79.1125C48.9012 79.1272 51.4723 81.2146 52.0983 84.1218V84.1218ZM68.1731 95.8594H63.9856V78.0625H68.1731V95.8594ZM81.7364 94.2032C81.4988 95.3066 80.342 96.0426 79.2543 95.8144C78.7047 95.6971 78.2336 95.3726 77.93 94.9025C77.6264 94.4335 77.5238 93.8735 77.6306 93.371L80.0719 84.0757C80.6864 81.2146 83.2575 79.1261 86.1846 79.1125L87.6031 79.1052L84.6446 69.6875H74.468H72.8914C72.0225 69.6875 71.3137 68.983 71.3137 68.1172C71.3137 67.2525 72.0183 66.5479 72.884 66.5479L84.9231 66.5469H86.6243C90.6903 66.5469 94.2256 69.3002 95.2212 73.2416L96.3592 77.7317C96.5989 79.011 96.3058 80.3039 95.5353 81.3738C94.6674 82.5777 93.1651 83.2969 91.5195 83.2969H89.1106H86.2139C85.234 83.2969 84.3735 83.993 84.1777 84.907L81.7364 94.2032ZM91.2044 95.8594H89.1106V89.5781H91.2044V95.8594ZM96.4387 87.4844H85.6643L86.2139 85.3906H89.1106H91.5195H96.4387V87.4844Z" fill="url(#paint1_linear)"/>
<path d="M83.8762 41.4219H85.97V43.5156H83.8762V41.4219Z" fill="url(#paint2_linear)"/>
<path d="M88.0637 41.4219H90.1575V43.5156H88.0637V41.4219Z" fill="url(#paint3_linear)"/>
<path d="M92.2512 41.4219H94.345V43.5156H92.2512V41.4219Z" fill="url(#paint4_linear)"/>
<path d="M95.3919 37.2344H82.8294C81.0978 37.2344 79.6887 38.6435 79.6887 40.375V44.5625C79.6887 46.294 81.0978 47.7031 82.8294 47.7031H85.97V51.6467L92.5412 47.7031H95.3919C97.1234 47.7031 98.5325 46.294 98.5325 44.5625V40.375C98.5325 38.6435 97.1234 37.2344 95.3919 37.2344ZM96.4387 44.5625C96.4387 45.1404 95.9697 45.6094 95.3919 45.6094H91.9613L88.0637 47.947V45.6094H82.8294C82.2515 45.6094 81.7825 45.1404 81.7825 44.5625V40.375C81.7825 39.7971 82.2515 39.3281 82.8294 39.3281H95.3919C95.9697 39.3281 96.4387 39.7971 96.4387 40.375V44.5625Z" fill="url(#paint5_linear)"/>
<defs>
<linearGradient id="paint0_linear" x1="0.84152" y1="65.7178" x2="132.682" y2="65.7178" gradientUnits="userSpaceOnUse">
<stop stop-color="#8FFF70"/>
<stop offset="1" stop-color="#8FFFFF"/>
</linearGradient>
<linearGradient id="paint1_linear" x1="33.624" y1="66.0693" x2="98.5325" y2="66.0693" gradientUnits="userSpaceOnUse">
<stop stop-color="#8FFF73"/>
<stop offset="1" stop-color="#8FFFF9"/>
</linearGradient>
<linearGradient id="paint2_linear" x1="83.8762" y1="42.4871" x2="85.97" y2="42.4871" gradientUnits="userSpaceOnUse">
<stop stop-color="#8FFF73"/>
<stop offset="1" stop-color="#8FFFF9"/>
</linearGradient>
<linearGradient id="paint3_linear" x1="88.0637" y1="42.4871" x2="90.1575" y2="42.4871" gradientUnits="userSpaceOnUse">
<stop stop-color="#8FFF73"/>
<stop offset="1" stop-color="#8FFFF9"/>
</linearGradient>
<linearGradient id="paint4_linear" x1="92.2512" y1="42.4871" x2="94.345" y2="42.4871" gradientUnits="userSpaceOnUse">
<stop stop-color="#8FFF73"/>
<stop offset="1" stop-color="#8FFFF9"/>
</linearGradient>
<linearGradient id="paint5_linear" x1="79.6887" y1="44.567" x2="98.5325" y2="44.567" gradientUnits="userSpaceOnUse">
<stop stop-color="#8FFF73"/>
<stop offset="1" stop-color="#8FFFF9"/>
</linearGradient>
<clipPath id="clip0">
<rect width="131.841" height="131.427" fill="white" transform="translate(0.841278)"/>
</clipPath>
</defs>
</svg>
